<svg id="Vector" xmlns="http://www.w3.org/2000/svg" width="4096" height="4096" viewBox="0 0 4096 4096">
  <defs>
    <style>
      .cls-1 {
        fill: #9b7254;
      }

      .cls-1, .cls-10, .cls-11, .cls-12, .cls-13, .cls-14, .cls-15, .cls-16, .cls-17, .cls-19, .cls-2, .cls-20, .cls-21, .cls-22, .cls-23, .cls-25, .cls-26, .cls-27, .cls-29, .cls-3, .cls-30, .cls-31, .cls-32, .cls-33, .cls-4, .cls-5, .cls-6, .cls-7, .cls-8, .cls-9 {
        fill-rule: evenodd;
      }

      .cls-2 {
        fill: #6e7173;
      }

      .cls-3 {
        fill: #b1b7bd;
      }

      .cls-4 {
        fill: #534b47;
      }

      .cls-5 {
        fill: #565859;
      }

      .cls-6 {
        fill: #939faa;
      }

      .cls-7 {
        fill: #c5c5c5;
      }

      .cls-8 {
        fill: #957f73;
      }

      .cls-9 {
        fill: #756257;
      }

      .cls-10 {
        fill: #867064;
      }

      .cls-11 {
        fill: #848789;
      }

      .cls-12 {
        fill: #393939;
      }

      .cls-13 {
        fill: #2e55ae;
      }

      .cls-14 {
        fill: #bd9007;
      }

      .cls-15 {
        fill: #c0d4e6;
      }

      .cls-16 {
        fill: #979ca1;
      }

      .cls-17 {
        fill: #474848;
      }

      .cls-18 {
        fill: #3ac722;
      }

      .cls-19 {
        fill: #7c858d;
      }

      .cls-20 {
        fill: #444;
      }

      .cls-21 {
        fill: #6f7274;
      }

      .cls-22 {
        fill: #615249;
      }

      .cls-23 {
        fill: #838c94;
      }

      .cls-24 {
        fill: #373737;
      }

      .cls-25 {
        fill: #85939f;
      }

      .cls-26 {
        fill: #aeaeae;
      }

      .cls-27 {
        fill: #8c8c8c;
      }

      .cls-28 {
        fill: #4f4438;
      }

      .cls-29 {
        fill: #c7926c;
      }

      .cls-30 {
        fill: #84735e;
      }

      .cls-31 {
        fill: #845e68;
      }

      .cls-32 {
        fill: #f0b082;
      }

      .cls-33 {
        fill: #cecece;
      }
    </style>
  </defs>
  <g id="Boat">
    <g id="Back_handles" data-name="Back handles">
      <path class="cls-1" d="M1672.39,838.527l67.55,1773.993s7.57,58.3,22.24,12.06S1930.27,861.874,1930.27,861.874Z"/>
      <path class="cls-1" d="M2573.6,891.144L2842.3,2686.9s13.43,49.57,22.52,1.36,22.33-1819.681,22.33-1819.681Z"/>
    </g>
    <path id="tt" class="cls-2" d="M1915,2543c-1.59-14.27-25.49-16.29-27,2-3.04,18.57,8,9,8,9l19-1S1918.96,2559.65,1915,2543Z"/>
    <path id="Tit" class="cls-2" d="M1949,2550c-1.98-28.65-26.15-17.97-25-5-0.38,16.03,8,17,8,17l16-3Z"/>
    <path class="cls-3" d="M1901,2568v69h77v-75l-11-14h-51Z"/>
    <path id="Dark_brown" data-name="Dark brown" class="cls-4" d="M1576,2526l115,3,106,69,2,39-36,1Z"/>
    <path id="dark" class="cls-5" d="M1796,2571l1,74,181,2v-83l-11-14-144-3Z"/>
    <path id="Side_light" data-name="Side light" class="cls-6" d="M1901,2572v66h77v-74l-11-15h-10l-11,26-14-26h-15Z"/>
    <path id="Nose_paper" data-name="Nose paper" class="cls-6" d="M3367,2682v242s43.67-131.68,148-38c20.33-60.32,57.67-89.68,156-70-1.67-42.32,57.67-81.68,134-94,20.33-40.32,34.18-42.31,91-73C3928.33,2624.68,3367,2682,3367,2682Z"/>
    <path id="Paper_nose_hilghlight" data-name="Paper nose hilghlight" class="cls-7" d="M3369,2708v113s62.92-55.34,123-21c42.45-38.9,100.36-70.86,148-36,25.94-47.87,88.35-52.64,124-65,29.78-23.38,94-43,94-43s-2.7.29-7.7,0.82C3788.03,2663.44,3369,2708,3369,2708Z"/>
    <path id="Nose" class="cls-8" d="M3362,2635s559.26-2.37,556,9c-0.9,17.57-559,68-559,68Z"/>
    <path id="Nose_shadow" data-name="Nose shadow" class="cls-9" d="M3362,2711l2-35s540.14-38.87,551-33C3957.07,2658.23,3362,2711,3362,2711Z"/>
    <path id="Nose_shadow-2" data-name="Nose shadow" class="cls-10" d="M3364,2649l553-8s-521.38,36.44-552,37S3364,2649,3364,2649Z"/>
    <path id="tt-2" data-name="tt" class="cls-2" d="M1835,2547c-4.58-22.39,34.87-29.42,38-2C1881.14,2560.26,1831.95,2568.36,1835,2547Z"/>
    <path id="Grey" class="cls-11" d="M1796,2570l26-23h96l-17,25H1796v-2Z"/>
    <path id="Shadow" class="cls-2" d="M1202,2525l-232,1V2236l163,13,152,146,7,133Z"/>
    <path class="cls-12" d="M1016,2477v27.56H989.69V2477H1016Z"/>
    <path id="Cabel_blue_1" data-name="Cabel blue 1" class="cls-13" d="M1055.14,2524.38v-25h44v-17h-58v28L1011,2510v-27H994v41Z"/>
    <path class="cls-12" d="M1061,2451h36v-32h-36v32Z"/>
    <path id="Cabel" class="cls-14" d="M1228,2524H1066V2424h26v76h136v24Z"/>
    <path id="Cabel_blue_1-2" data-name="Cabel blue 1" class="cls-13" d="M1238,2525H1136v-26h-44v-17h58v28h89Z"/>
    <path id="Light" class="cls-15" d="M1037,2241l213,210,40,2,4-49-160-155Z"/>
    <path id="Plate" class="cls-6" d="M1067,2256l63.78,4.16,73.48,74.87-62.39-4.16Z"/>
    <path id="Plate-2" data-name="Plate" class="cls-6" d="M1157,2346l63.78,4.16,73.48,74.87-62.39-4.16Z"/>
    <path id="Dark-2" data-name="Dark" class="cls-5" d="M1199,2528l4-54,21-24,56-2s-0.13-34.29,10-50,15.51-28.75,30-39c9.9-1.06,92.19,2.87,108,3,12.63,2.25,19.33,21.64,22,29s-13,10-13,10,5.22,15.65-7,34c10.61,2.48-41.76,28.98,4,93C1492.81,2570.95,1199,2528,1199,2528Z"/>
    <path id="Side_light-2" data-name="Side light" class="cls-16" d="M1441,2529l10-134s-12.72-81.69-59,14c-19.77,116.82-37,126-37,126Z"/>
    <path id="dark-3" data-name="dark" class="cls-2" d="M1565,2392c56.29,0,38.32,88.44,34,119-6.46,11.58-11,16-11,16l-159,1s-17.89-63.08-2-95c-15.84-15.58-24.79-36.62,16-30,17.66-15.74,25.6-9.14,31-13,0.77-11.57,6.03-56.55,28-3,21.2,1.89,25.52,2,34,2C1539.08,2340.42,1562.69,2389.69,1565,2392Z"/>
    <path id="Shadow-2" data-name="Shadow" class="cls-17" d="M1560,2526c-7.35-13.15-14.37-46.9-10-79-74.85,8.93-102.12-4.26-125-13-3.6,17.22-8.98,65.01,5,92C1436.74,2538.29,1543.41,2545.44,1560,2526Z"/>
    <path id="Light_Bulb_" data-name="Light Bulb&apos;" class="cls-16" d="M1564,2392c-25.19-50.37-27.27-8.82-27-4a5.339,5.339,0,0,0,2,2S1551.67,2391.2,1564,2392Z"/>
    <path id="Light_Bulb_2" data-name="Light Bulb&apos;" class="cls-16" d="M1502,2389c-4.94-12.92-21.43-56.15-28,2C1481.66,2389.91,1493.42,2389.56,1502,2389Z"/>
    <path id="Light-2" data-name="Light" class="cls-16" d="M1562,2532s-34.12-72.2,7-133c43.7-23.89,45.8,107.33,22,125-10.3,10.17-18,13-18,13Z"/>
    <path class="cls-2" d="M1565,2434v71h24v-71h-24Z"/>
    <path id="Light_Bulb_3" data-name="Light Bulb&apos;" class="cls-16" d="M1506,2464c1.27-13.94,4.19-30.61,6-30s-12.49-19.85-37-15C1457.58,2420.9,1488.78,2469.68,1506,2464Z"/>
    <path id="Bulb_shadow" data-name="Bulb shadow" class="cls-17" d="M1500,2456s-27.86-25.09-30-32c-6.49,9.14,23.99,57.42,33,49C1512.35,2464.58,1500,2456,1500,2456Z"/>
    <path id="Light_Bulb" data-name="Light Bulb" class="cls-16" d="M1446,2442c6.17-4.11-.21-12.48,13-32-2.24-7.27-43.61-21.5-42-13C1400.3,2409.63,1440.35,2445.6,1446,2442Z"/>
    <path id="Bulb_shadow_copy" data-name="Bulb shadow copy" class="cls-17" d="M1440.81,2432.03s-27.86-25.09-30-32c-6.49,9.14,23.99,57.42,33,49C1453.16,2440.61,1440.81,2432.03,1440.81,2432.03Z"/>
    <path id="Bulb_shadow_copy-2" data-name="Bulb shadow copy" class="cls-17" d="M1543,2368c-5.83-1.87-6,22-6,22l10,1S1542.07,2380.13,1543,2368Z"/>
    <path id="Bulb_shadow_copy-3" data-name="Bulb shadow copy" class="cls-17" d="M1482,2363c-5.83-1.87-8,28-8,28l13-1S1481.07,2375.13,1482,2363Z"/>
    <path id="Dark-4" data-name="Dark" class="cls-2" d="M2377,2633V2515l44-31,194,1-1,148,1,14-238,4v-18Z"/>
    <path id="Black" class="cls-12" d="M2396,2535v53h77v-40h125v-41H2434Z"/>
    <circle id="Circle" class="cls-18" cx="2437" cy="2552" r="29"/>
    <path id="Halfcircle" class="cls-2" d="M2478,2550c1.51-27.97,60.32-52.91,80,1C2505.81,2549.98,2513.3,2549.93,2478,2550Z"/>
    <path class="cls-12" d="M2483,2584v45h65v-13Z"/>
    <path id="Side_light-3" data-name="Side light" class="cls-16" d="M2613,2485v154h38V2485h-38Z"/>
    <path id="Dark-5" data-name="Dark" class="cls-5" d="M2991,2568l-1,63v17l90-1v-92l-73-5Z"/>
    <path id="tit-2" data-name="tit" class="cls-2" d="M3038,2555c10.83-18.05-26.55-36.56-25-2C3021.06,2559.92,3025.44,2552.65,3038,2555Z"/>
    <path id="tit-3" data-name="tit" class="cls-2" d="M3050,2553c0.41-23.27,23.31-26.06,26-1-0.93,23.51-3,12-3,12h-24Z"/>
    <path id="Top_Light" data-name="Top Light" class="cls-6" d="M2990,2569l17-19h76v20Z"/>
    <path id="Grey-2" data-name="Grey" class="cls-6" d="M3080,2507v131h226v-24l-226-111v4Z"/>
    <path id="Dark-6" data-name="Dark" class="cls-2" d="M3128,2571c8.61-30.58,66.43-6.6,38,27C3143.17,2613.94,3120.68,2592.54,3128,2571Z"/>
    <path id="Black_Square" data-name="Black Square" class="cls-12" d="M3024,2618h34v-35h-34v35Z"/>
    <path id="Cabel-2" data-name="Cabel" class="cls-14" d="M3032,2595v14h125v-35h-16v19H3032v2Z"/>
    <path id="Light-3" data-name="Light" class="cls-15" d="M3306,2584v31l-227-112,13-2Z"/>
    <g id="Coil_2" data-name="Coil 2">
      <path id="Coil" class="cls-15" d="M2096.36,2571c-1.95,12.86,2,69,2,69s121.58,33.67,176,3c-0.05-51.65,1.95-61.2-5.57-74.54-11.69-20.7-32.13-22.09-38.43-43.46,65.45-9.43,18.96-37.49,8-47,21.03-12.65,31.59-17.8-6-44,27.47-12.17,31.41-26.12-13-46,45.97-97.41-114.73-110.36-69,3-16.6,5.45-59.78,36.23-10,49-40.6,14.72-46.3,34.68-8,39-8.05,6.66-53.96,32.86,6,45C2125.08,2551.72,2108.05,2553.08,2096.36,2571Z"/>
      <path id="Coil_Shadow" data-name="Coil Shadow" class="cls-19" d="M2098.23,2639.37s-3.61-57.91-2-66,45.23,9.56,140-1c-4.85,40.68-2.98,65.68,0,74s-29,4-29,4l-106,2Z"/>
      <path id="Coil_Shadow-2" data-name="Coil Shadow" class="cls-19" d="M2139.23,2525.37c-15.82,31.17-26.45,23.86-42,47,3.12,6.68,1,15,1,15l138-13s-29.34-20.46-36-48C2168.77,2527.17,2162.74,2528.87,2139.23,2525.37Z"/>
      <path id="Coil_Shadow-3" data-name="Coil Shadow" class="cls-19" d="M2132.23,2480.37s65,9.23,85,2c-3.76,9.07-3.8,7.32,5,15,11.3,7.38-111.48,7.29-101-8C2128.6,2483.01,2132.23,2480.37,2132.23,2480.37Z"/>
      <path id="Coil_Shadow-4" data-name="Coil Shadow" class="cls-19" d="M2137.23,2441.37s68.68,6.95,79-2c-3.82,12.05-7.29,10.63,4,18s-110.48,9.29-100-6C2127.38,2446.5,2137.23,2441.37,2137.23,2441.37Z"/>
      <path id="Coil_Shadow-5" data-name="Coil Shadow" class="cls-19" d="M2150.23,2392.37c-4.93,2.12-11.75,3.83-18,10s40.26,15.18,69,10c25.93-3.76.94-8.1,10-16C2194.5,2401.67,2177.88,2413.15,2150.23,2392.37Z"/>
    </g>
    <path id="Cabel-3" data-name="Cabel" class="cls-14" d="M2376,2627l-158,2v-28s-37.25-.36-48,0c-10.18.36-10.2-22.86-1-19,18.97-1.31,70,0,70,0v23h137v22Z"/>
    <path id="Black_Square-2" data-name="Black Square" class="cls-12" d="M1975,2602v-23h-12v23h12Z"/>
    <path id="Black_Square-3" data-name="Black Square" class="cls-12" d="M1938,2634.78v-23h-12v23h12Z"/>
    <path id="Cabel_3" data-name="Cabel 3" class="cls-13" d="M1932,2635v-17h408v-67h31v23h-13v62Z"/>
    <path class="cls-12" d="M2371,2546v32h6v-32h-6Z"/>
    <path class="cls-12" d="M2371,2600v32h6v-32h-6Z"/>
    <path id="Cabel_2" data-name="Cabel 2" class="cls-14" d="M1970,2582v18h215v-18H1970Z"/>
    <g id="Coil_1" data-name="Coil 1">
      <path id="Coil-2" data-name="Coil" class="cls-15" d="M2007,2571c-1.95,12.86,2,69,2,69s121.58,33.67,176,3c-0.05-51.65,1.95-61.2-5.58-74.54-11.68-20.7-32.12-22.09-38.42-43.46,65.45-9.43,18.96-37.49,8-47,21.03-12.65,31.59-17.8-6-44,27.47-12.17,31.41-26.12-13-46,45.97-97.41-114.73-110.36-69,3-16.6,5.45-59.78,36.23-10,49-40.6,14.72-46.3,34.68-8,39-8.05,6.66-53.96,32.86,6,45C2035.72,2551.72,2018.69,2553.08,2007,2571Z"/>
      <path id="Coil_Shadow-6" data-name="Coil Shadow" class="cls-19" d="M2008,2636s-1.61-55.92,0-64,45.22,9.55,140-1c-4.86,40.68-2.99,65.67,0,74s-29,4-29,4l-106,2Z"/>
      <path id="Coil_Shadow-7" data-name="Coil Shadow" class="cls-19" d="M2049,2524c-13.79,30.15-27.63,27.12-41,47a35.1,35.1,0,0,0,2,15l138-13s-29.35-20.47-36-48C2080.53,2525.79,2072.51,2527.49,2049,2524Z"/>
      <path id="Coil_Shadow-8" data-name="Coil Shadow" class="cls-19" d="M2044,2479s65,9.23,85,2c-3.76,9.06-3.81,7.31,5,15,11.29,7.38-111.48,7.29-101-8C2040.36,2481.63,2044,2479,2044,2479Z"/>
      <path id="Coil_Shadow-9" data-name="Coil Shadow" class="cls-19" d="M2049,2440s68.68,6.94,79-2c-3.83,12.05-7.3,10.62,4,18s-110.48,9.29-100-6C2039.15,2445.13,2049,2440,2049,2440Z"/>
      <path id="Coil_Shadow-10" data-name="Coil Shadow" class="cls-19" d="M2062,2391c-4.93,2.11-11.76,3.82-18,10s40.25,15.18,69,10c25.93-3.77.93-8.11,10-16C2106.27,2400.3,2089.65,2411.77,2062,2391Z"/>
    </g>
    <path id="Grey-3" data-name="Grey" class="cls-11" d="M1932,2548l14,26,12-26h-26Z"/>
    <path id="Light_Side" data-name="Light Side" class="cls-3" d="M1369,2398l22,19-19,111-52,6v-58l17-34Z"/>
    <path id="Grey-4" data-name="Grey" class="cls-19" d="M1270,2451l13-53h87l-11,54"/>
    <path id="Grey-5" data-name="Grey" class="cls-6" d="M1203,2474l117,2,13-25-108-2Z"/>
    <path id="Pipe_B" data-name="Pipe B" class="cls-12" d="M1293,2692s1,80.84,1,105c22.1-4.11,41.97-22.46,86-40,13.19,4.57,54.93-3.76,70,4,5.82,11.36,24,74,24,74s13.66,41.83,24,41,19.55-6.22,17-21,4.68,7.51,17-17c-5.67-30.68-15.08-60.72-15-75,26.81-5.54,73-7,73-7s10.81,12.89,35,10,40-23,40-23l-85-65Z"/>
    <path id="Pipe_B-2" data-name="Pipe B" class="cls-12" d="M1277,2809l-83,30s7.52,30.53-38,22c-5.7,28.13-11.45,35.03-3,65,35.88,7,25,30,25,30l87,49,66-26s28-3.22,49-10c7.85-.89,76.93,9.95,102-2,13.38,5.24,87,10,87,10s36.24-8.91,52-12c-3.42,43.64,7.88,32.47,39,31-0.37,15.03,16.34,22.32,32.78,21.56,16.39-.75,32.51-9.5,31.22-26.56,7.08-4.38,20.85,2.82,33-3,1.15,5.87,1,15,1,15l84-2-4-152s-139.55-110.62-176-112c-48.83,26.82-48.42,44.36-47,88-8.9-.37-49-7-49-7s-60.39,15.89-91,19c-16.01-1.99-67.22-4.01-87-3-21.85-1.05-60-8-60-8Z"/>
    <path id="Boat-2" data-name="Boat" class="cls-8" d="M1832,3034c177.96,10.21,896,2,896,2s445.81-116.15,636-324c2.23-18.79,1-77,1-77H1771l-196-110-608-1s120.03,145.72,329,277c-2.54-48.14-1-106-1-106s230.11-2.45,287-3C1872.28,2902.05,1829.08,2850.21,1832,3034Z"/>
    <path id="Pipe_light" data-name="Pipe light" class="cls-20" d="M1203,2892c-9.64,6.15-11.78,27.45,3,47,10.88,33.7,52.18,41.58,60,43s43.43-19.87,71-35c24.91,4.76,126.92,10.92,141-3,24.19,6.82,108.56,23.57,130-17,27.49,10.48,22,44,22,44s30.36,12.69,34-20c6.58,49.49,58.82,38.13,56,3,24,34.4,34.75,3.37,40,2,15.84,26.34,56.93,21.7,69,5,8.03,5.21,6-23,6-23s3.18-32.98-22-62c-30.95-8.95-53-6-53-6s-23.82-1.56-42,3c-9.07-17.41-39.88-23.06-46-3-6.29-4.52-20.79-12.6-31-7-47.2-5.61-78-9-78-9s-44.78,30.45-87,25c-21.85-13.61-120.47-19.4-135-11-27.39,7.94-59.89-4.8-80-12C1246.59,2861.03,1225.51,2883.75,1203,2892Z"/>
    <path id="Pipe_light-2" data-name="Pipe light" class="cls-21" d="M1223.6,2895.51c-9.32,3.7-11.39,16.51,2.9,28.27,10.51,20.27,50.43,25.01,57.99,25.87s41.97-11.96,68.62-21.06c24.07,2.87,122.66,6.57,136.27-1.8,23.38,4.1,104.92,14.18,125.64-10.23,26.57,6.31,21.27,26.47,21.27,26.47s29.34,7.63,32.86-12.03c6.36,29.76,56.85,22.93,54.12,1.8,23.19,20.69,33.59,2.03,38.66,1.21,15.31,15.84,55.02,13.05,66.68,3,7.76,3.14,5.8-13.83,5.8-13.83s3.08-19.84-21.26-37.29c-29.91-5.38-51.22-3.61-51.22-3.61s-23.02-.94-40.59,1.8c-8.77-10.47-38.54-13.86-44.46-1.8-6.08-2.72-20.1-7.58-29.96-4.21-45.62-3.37-75.39-5.41-75.39-5.41s-43.28,18.31-84.08,15.03c-21.12-8.18-116.43-11.66-130.48-6.61-26.47,4.77-57.88-2.89-77.31-7.22C1265.73,2876.88,1245.35,2890.55,1223.6,2895.51Z"/>
    <path class="cls-20" d="M1656,2772s-10.45,46.54-3,70c18.8,0.76,33.47-12.04,57,5s25.62-15.71,4-38C1693.8,2781.03,1656,2772,1656,2772Z"/>
    <path class="cls-20" d="M1306,2705s-1.48,21.25-1,33,83.55-18.43,137-4c29.62,13.1,98.84,3.46,143,1a280.459,280.459,0,0,1,43,13s-23.72-34.87-50-48C1545.76,2694.15,1306,2705,1306,2705Z"/>
    <path id="Boat_shadow" data-name="Boat shadow" class="cls-22" d="M1831,2919c1.68,45.23,1,114,1,114s219.07,13.48,900,4c78.03-17.64,499.42-160.95,632-328C2503.92,3055.98,1928.16,2903.92,1831,2919Z"/>
    <path id="Shadow_2" data-name="Shadow 2" class="cls-9" d="M1678,2763s154.87,95.12,154,160c507.16,43.58,1079.81,26.13,1534-214,1.06-12.14,1.34-13.55,0-31C2193.99,3016.31,1678,2763,1678,2763Z"/>
    <path id="Shadow_3" data-name="Shadow 3" class="cls-10" d="M1581,2692c98.2,63.28,167.11,194.82,809,167,355.8-23.01,650.65-85.16,977-181-0.32-12.68-.34-8.06,0-29C2750.48,2771.51,1998.65,2843.4,1581,2692Z"/>
    <path id="Boat_shadow_3" data-name="Boat shadow 3" class="cls-10" d="M1017,2578c23.42,3.25,422.98,36.71,566,114-199.05,1.13-288,4-288,4C1118.64,2691.63,1128.25,2676.24,1017,2578Z"/>
    <path id="Shadow_4" data-name="Shadow 4" class="cls-9" d="M1295,2696l1,103s-144.34-88.82-218-166C1135.48,2679.74,1295,2696,1295,2696Z"/>
    <path id="Pipe_1" data-name="Pipe 1" class="cls-12" d="M2496,2625v44l-28,31h98l-25-31v-44h-45Z"/>
    <path id="Pipe_2" data-name="Pipe 2" class="cls-17" d="M2468,2700v31h98v-31h-98Z"/>
    <path id="Pipe_3" data-name="Pipe 3" class="cls-12" d="M2560,2745h-86v-14h86v14Z"/>
    <path id="Ram" class="cls-23" d="M2472,2548h123v146h-20l-21-23v-52l-82-38v-33Z"/>
    <circle class="cls-24" cx="2558" cy="2579" r="18"/>
    <path id="Side_light-4" data-name="Side light" class="cls-3" d="M2595,2548h-10v146h10V2548Z"/>
    <path id="l" class="cls-21" d="M1194,2838s5.93,30.17-36,24c42.53,33.06,94.9-20.54,109-30,23.71,14.2,48.83,8.99,69,12,12.96,8.42,25.56,2.98,45,9,17.64-2.99,89.85,1.17,103,6-4.1-9.83-9-22-9-22s-57.62-5.19-94-3c-51.74-6.27-75.64-15.58-105-25C1250.97,2818.04,1194,2838,1194,2838Z"/>
    <path id="L-2" data-name="L" class="cls-21" d="M1296,2756v40c16.79-1.53,25.76-11.06,82-39,12.5,7.67,61.32-3.76,73,4-4.09-9.03-5.83-20.38-24-21-28.86-3.17-34.54-2.12-53-1C1328.98,2755.38,1296,2756,1296,2756Z"/>
    <path id="l-3" data-name="l" class="cls-21" d="M1485,2759s24.41,74.35,32,95c1.08,11.17-8.39,12.47-15,10,5.13-16.06-5.23-40.33-19-81-23.25-44.23-12-34-12-34Z"/>
    <path id="l-4" data-name="l" class="cls-21" d="M1517,2762c-4.39.69-6.89,0.24-7,9-0.2,15.48,6.38,42.92,13,58,4.72,8.31,3.12-.55,8,0C1534.23,2838.85,1520.26,2794,1517,2762Z"/>
    <path id="l-5" data-name="l" class="cls-21" d="M1529,2852l-4-24s22.44-5.89,41-11c8.11,1.95,42.37,5.72,49,9,0.43-2.92-5.12-48.25,11-60-10.74,1.06-25.38.78-35-9-19.54-2.75-75,6-75,6l-5,2-5-13s58.13-12.7,86-11c16.3,3.77,36.71,11.81,45,20-9.48,30.5-9.72,65.74-6,76-23.55,13.98-63.94-3.71-78,3C1544.51,2845.33,1529,2852,1529,2852Z"/>
  </g>
  <g id="Ballong">
    <path id="v" class="cls-6" d="M242,1100L223,656s35.1-156.524,111-83c-13.811,175.038-45,506-45,506Z"/>
    <path id="v-2" data-name="v" class="cls-6" d="M214,1331l24,477s53.152,84.49,96-38c-30.337-176.79-75-429-75-429Z"/>
    <path id="P" class="cls-12" d="M28,1212c3.759,59.18,196.609,145.51,233,150s18-290,18-290S24.241,1152.82,28,1212Z"/>
    <path id="P-2" data-name="P" class="cls-15" d="M440,1056s-123.078-12.31-185,28c-38.344,96.04-17.67,286.61,2,321s168,37,168,37Z"/>
    <path class="cls-25" d="M233,1263s131.82,34.41,149,17,30,163,30,163-139.689-5.49-156-37C238.163,1370.84,233,1263,233,1263Z"/>
    <path class="cls-12" d="M301,1080c-39.887,24.76-37.437,72.04,15,28C353.307,1076.34,317.505,1064.87,301,1080Z"/>
    <path class="cls-12" d="M282,1200c-20.631-8.25-39.171,62.47-2,68C313.044,1266.65,310.884,1195.87,282,1200Z"/>
    <path class="cls-12" d="M280,1328c41.262,15.13,53.072,41.05,54,70C279.911,1393.94,262.119,1341.75,280,1328Z"/>
    <path id="V-3" data-name="V" class="cls-6" d="M198,1153s-29.407-62.04-59-116c-43.519,102.7-9,336-9,336l65-97Z"/>
    <path class="cls-7" d="M574,1556c37.911,58.45,409.016,297.35,450,212,30.68,58.85,157.85,107.21,264,52,126.75,78.69,391.04,183.15,484,90,51.76,64.79,346.97,123.68,553,34,72.13,40.79,242.97,123.81,487-38,51.76,54.49,181.03,10.24,236-21,42.98,19.84,116.02,26.4,209-62,112.81,41.6,771.98-310.65,790-496-1.81-332.978-84.82-322.72-376-479,8.47-21.878-75.46-101.148-765-251-13.12-17.652-556.96-118.252-665-76-121.26,4.795-352.86-38.592-785,94-22.32-1.812-254.27,50.292-406,130-74.611,66.488-368.359,86.981-628,318-48.121,96.61-63.809,247.16-13,379C451,1558.42,536.089,1497.55,574,1556Z"/>
    <path id="Ballon_shadow_2" data-name="Ballon shadow 2" class="cls-26" d="M545,1481c37.911,58.45,422.329,231.35,463.31,146,30.69,58.85,157.85,107.21,264,52,126.76,78.69,391.05,183.14,484,90,51.76,64.79,346.97,123.68,553,34,72.13,40.79,242.97,123.81,487-38,51.77,54.49,181.04,10.24,236-21,42.98,19.84,116.02,26.4,209-62,112.82,41.6,855.63-166.68,803.69-430-392.76,124.35-628.2,277.1-791,123-107.71,169.03-243.62,226.36-424,146-46.79,69.56-341.61,206.43-512,50-156.2,119.46-397.09,92.32-568-8-143.06,56.7-337.74,69.78-499-53-42.77,15.6-107.5,18.24-150-48-121.816-4.71-227.872-24.89-293-45-161.8,9.53-267.052-89.01-427-113C385.2,1412.53,407.385,1509.93,545,1481Z"/>
    <path id="Ballon_shadow" data-name="Ballon shadow" class="cls-27" d="M574,1556c37.911,58.45,409.016,297.35,450,212,30.68,58.85,157.85,107.21,264,52,126.75,78.69,391.04,183.15,484,90,51.76,64.79,346.97,123.68,553,34,72.13,40.79,242.97,123.81,487-38,51.76,54.49,181.03,10.24,236-21,42.98,19.84,116.02,26.4,209-62,112.81,41.6,790.84-318.32,789-506-353.15,153.53-613.2,368.1-776,214-107.71,169.03-243.62,233.36-424,153-46.79,69.56-341.61,202.43-512,46-156.2,119.46-423.09,107.32-594,7-143.06,56.7-336.74,20.78-498-102-42.77,15.6-102.98,29.07-137-40-115.756-4.71-205.872-12.89-271-33-163.146-21.45-265.052-96.01-425-120C451,1558.42,536.089,1497.55,574,1556Z"/>
    <path id="Shadow-3" data-name="Shadow" class="cls-27" d="M648,929s436.93-2.557,477,35c4.66,93.22,116,278,116,278s18.48-86.43,180-190c146.34,5.22,298.36,62.38,392,159,65.81-83,66-103,66-103s28.94,55.23,37,68c63.72-70.71,129-83,129-83s200.13,123.25,289,326c182.48-245.06,194.42-210.34,273-281,55.81,22.94,188.98,169,197,235,61.15-252.77,206.13-335.81,436-174,90.72-263.222,363.56-131.53,407-81,15.61-144.272-53-215-53-215L1064,827Z"/>
    <g id="Handles">
      <circle class="cls-28" cx="2903.61" cy="2676.61" r="28.61"/>
      <circle class="cls-28" cx="1693.61" cy="2657.61" r="28.61"/>
      <path class="cls-29" d="M1302,907l376,1735s17.62,56.09,24,8S1560,885,1560,885Z"/>
      <path id="shadow-4" data-name="shadow" class="cls-1" d="M1415,1126c-25.04,35.77,215.23,1173.94,222,1122-20.74-250-83.3-1007.5-115-1142-28.95,14.07-.33,319.11,0,387C1496.34,1411.47,1440.04,1090.23,1415,1126Z"/>
      <path class="cls-29" d="M2919.94,852.442L2894,2668s5.22,51.09,22,5S3233,881,3233,881Z"/>
      <path id="shadow-5" data-name="shadow" class="cls-1" d="M3097.75,1231.84c27,34.33-149.59,1184.1-159.24,1132.61,6.8-250.76,27.13-1010.57,51.3-1146.63,29.68,12.45,18.08,318.61,21.52,386.41C3032.42,1521.39,3070.76,1197.52,3097.75,1231.84Z"/>
      <path class="cls-1" d="M1345,1109s102.62-81.46,232-33c-2.67-59.06-7-70-7-70l-167-20-67,72Z"/>
      <path class="cls-1" d="M3184,1162s-124.16-100.99-268-4c0.09-40.77-2-55-2-55l113-77,171,64Z"/>
    </g>
    <path class="cls-30" d="M1043,757S759.62,849.312,663,907s577.81-100.871,692,107c150.62-34.142,302.35,2.94,466,138,80.38-99.14,106.88-218.268,367-226C1844.39,733.505,1043,757,1043,757Z"/>
    <path class="cls-30" d="M2265,933s477.29,127.91,551,370c44.13-237.86,230.71-295.22,445-146,39.74-185.672,179.06-197.236,403-94,23.64-150.469-7-227-7-227l-731-64Z"/>
    <path class="cls-31" d="M2346,1357s-173.32-376.5-562-395c-203.65-196.275,126-265,126-265l1455,72s-83.22,121.04-127,317C2684.97,788.689,2346,1357,2346,1357Z"/>
    <path class="cls-31" d="M1235,1192c-132.54-142.54-177.9-411.143-133-449,166.7-79.617,534.17-125.145,559-17,70.07,66.384,130,125,130,125S1381.46,944.771,1235,1192Z"/>
    <path class="cls-29" d="M1033,761s751.99,138.709,895,343c221.19-169.258,611.91-147.137,890-4,169.5-247.786,452.68-277.676,626-165,60.39-43.694,152.03-117.963,230-83,25.85-93.448-1256.14-415.975-1430-329-127.69-11.206-532.44-24.514-779,92C1150.63,660.986,1033,761,1033,761Z"/>
    <path class="cls-32" d="M1202,680s1032.74,327.23,2134,21c-403.9-130.3-998.85-244.17-1087-175C1626.87,462.6,1202,680,1202,680Z"/>
    <path id="Wing" class="cls-26" d="M423,953l118,153,468-73C714.324,797.259,423,953,423,953Z"/>
    <path id="Wing-2" data-name="Wing" class="cls-33" d="M553.434,1355.83l-198.07,179.4s353.926,99.64,644.154-88.69C648.119,1378.02,553.434,1355.83,553.434,1355.83Z"/>
  </g>
</svg>
