<svg xmlns="http://www.w3.org/2000/svg" viewBox="0 0 2522.53 149.86"><defs><style>.cls-1{opacity:0.5;}.cls-2{fill:#f79495;}</style></defs><g id="Water_Ripples" data-name="Water Ripples" class="cls-1"><path class="cls-2" d="M244.56,1459.68a52.28,52.28,0,0,1,11,2.22c1.85.55,3.84.95,5.86,1.37l6.59.73c9,2,18-1,26,0,37,2,74-2,111.29-2.84,4.25-.25,8.67-.33,12.39-.62,37.15-2.87,74.24-6.79,111.32-10.54-1,0-2-1-3-1,26-5,53-3,79,1-5-5-12-3-18-5,20,3,41,12,62,5-6,6-13,7-21,9,36-7,76-25,111-6-6-4-12-7-19-8,10,2,19,6,29,6,12,0,24,2,36,3,5,0,11,1,16-1-13,6-26-2-39,3,23,5,43,0,65-9,11-4,20,10,32.43,13.9,2.16.17,4.43.07,6.66.1a36.25,36.25,0,0,1,6.91,0,22,22,0,0,0-8-1c17-2,34,0,51,0-8-3-16,1-24,0,43-1,86,1,127,13-3-1-5,2-8,3,15-6,29-15,46-17,14-1,26,7,40,3a11.35,11.35,0,0,0-8-3c24-9,47,2,71,5,8,1,16-4,24-1a159,159,0,0,0,65,4c-2,1-3,2-5,0,2,1,4,3,6,2-21,4-41,7-63,1-11-3-22,3-33,5,3,1,6-5,9,0-19,4-41,7-58-3l2,2c-13-1-26-2-38-6-16-5-34,5-43,19,1-1,1-2,2-3a17.11,17.11,0,0,1-9.67,6.46C1011,1494,1006,1488,999.75,1485a76,76,0,0,0-9.77-3.83c-26.94-8.74-54.78-6.34-82-7.14a31,31,0,0,1,13-6c-18,0-37-2-55-2,3,2,6,0,9,2a72.34,72.34,0,0,0-7.5-.3c-2.5,0-5,.11-7.5.18-2-.88-5,.12-7-.88-15-16-35-9-53-4-11,3-22-1-33-2,14-1,29,6,42-1a306.66,306.66,0,0,1-80,1c8,5,18,8,27,5-3,1-6,2-8,2-34-13-70-7-104,1,8-7,18-6,27-9-26,3-52,8-77-2,9,2,17,6,26,8a245.59,245.59,0,0,0-81-8l2-2c-2,0-3,1-5,1,1,0,2,1,3,1a1104.64,1104.64,0,0,1-111.41,8.42c-2.86-.18-5.25-.27-8-.48C392,1465,363,1469,335,1466c-21-2.25-41.44-2.81-61.84-3.17-6.81-.12-13.61-.22-19.73-1.48C247.8,1460.22,244.56,1459.68,244.56,1459.68Z" transform="translate(-39.47 -1434)"/><path class="cls-2" d="M646.9,1522.62C675,1523,702,1519,730,1517c21-2,42-6,63-4-3,3-7,3-11,3,4,3,8,9,14,8,27-3,53-5,80,1h-3c6-1,12-4,18-3,29,6,53-6,79-2,31,4,62-1,91-10,32-10,63,9,97,2,4-2,8-4,13-5,2,0,4,1,6,2-3-1-6-2-8-1-33,18-70,9-104,2-15,45-73,19-109,20-3,0-6,2-9,4,1-1,3-1,4-1-4,2-9,3-13,4,1-2,3-4,4-6-6,2-12,3-17,1-21-8-39-1-58,5,3-2,5-4,9-5-3,1-5,3-8,4-10.5,1.5-21,1-31.38,1.38-2.59.09-5.39.19-8.45.34C814,1538,801,1543,787,1546c-6,2-11-1-17-3,6-1,12-4,10.75-11a10.39,10.39,0,0,0-5.75-5,41,41,0,0,0,11-1c-17.08-5.83-34.69-6.81-52.45-5.23-3.55.31-7.11.73-10.68,1.23C694,1525,667,1537,637,1536c3,0,6-1,7-3,0-3-4-1-5-2-3-3,1-3,2.38-5.4C644.56,1523.86,646.9,1522.62,646.9,1522.62Z" transform="translate(-39.47 -1434)"/><path class="cls-2" d="M58.38,1514.24C80,1499,108,1494,133,1505c4,2,8,0,12,2a60.64,60.64,0,0,0,9.93,3.91c14.07,3.09,28.07-.91,41.27-4,3.53-.91,6.89-1.78,10.25-2.54A80.07,80.07,0,0,1,227,1502c24,0,47,1,70-5,26-7,52-4,78-1-2,3-5,6-5,9-1,1,2,1,4,1a9,9,0,0,0-5-1c1,0,3-1,4-1-14-4-28,2-42,0-22-4-41,4-62,7-2.5.17-5,.19-7.5.15s-5-.17-7.5-.3c-12-1.85-25-1.85-37,2.15-36,14-83,26-115.66,2.36-1.34-1.28-3.06-2.64-4.78-4-3.45-2.77-6.89-5.66-10.56-8.33l5-5c-9,0-15,7-23.06,10.32C62.69,1511.42,58.38,1514.24,58.38,1514.24Z" transform="translate(-39.47 -1434)"/><path class="cls-2" d="M64.49,1435.71C83,1447,105,1453,126,1458c-4,0-9,1-13-1-15-6-30-11-45.93-12.64Z" transform="translate(-39.47 -1434)"/><path class="cls-2" d="M1456.53,1458.66C1477,1445,1499,1435,1524.16,1441a32.78,32.78,0,0,1,7.49,2c27-2.75,54-5,81.35-5,7,0,14-4,21-3,18,0,35,4,53-1-2,1-4,1-5,4,12-2,22,1,34,3,16,3,32-3,48-2a9.08,9.08,0,0,1-7,3c23,8,46,2,69,4h-1c36,3,71,2,107,3-31,1-62,10-92.8,10.47-3.76,0-7.4-.15-10.8-.25s-6.47-.39-9.46-.69C1799,1456,1779,1456,1759,1451c2,0,4-1,4-3-29,1-57,0-86,0a35.52,35.52,0,0,1,9-4c-7,2-15,3-22,2-22-1-44,5-66,4-5-1-11-2-16-4,1,0,1-1,2-1-16.25-.42-32.67-1.7-49.16-2.6-3.84-.89-7.89-2-12.21-3.14-22.63-4.26-45.63-2.26-65,12.1Z" transform="translate(-39.47 -1434)"/><path class="cls-2" d="M1349.13,1528.75a25.56,25.56,0,0,0,10.9,4,27.12,27.12,0,0,0,11-.76c17-4,32-14,49-11,22,5,42,11,64,3,14-5,28,4,42,5-6,1-9-4-14-6,4,2,9,1,13,1,14-2,27-10,41-6-4-4-10-7-16-6a12.75,12.75,0,0,1,12,0c24,9,46,8,71,7,11-1,20,8,30,9,11,1,26,1,34-9,1,9-11,10-17,14,30-10,62-18,94-16-43,0-84,31-127,20,36,10,75-10,111-16-7,5-15,4-22,7-11,5-23,2-35,5-14,4-28,14-42,10-24-9-49-2-74-4-19-1-38-4-57-1,18-5,37-2,55,2-12-2-24-9-35-6-23,8-43-4-66-3,12-2,24,2,35,7-6-2-12-6-18-5-29,2-54,4-82-8-10-4-22,3-34,7-8,3-17,3-25.11,1.39A56.78,56.78,0,0,1,1349.13,1528.75Z" transform="translate(-39.47 -1434)"/><path class="cls-2" d="M1401.8,1483.34c5.2-.34,11.2-3.34,16.2-1.34,29,10,60,14,87-3-23,20-54,24-83,14-12-4-24,0-37-2-5-1-8-4-12-7,8,2,15,0,23.24.3C1399.53,1483.77,1401.8,1483.34,1401.8,1483.34Z" transform="translate(-39.47 -1434)"/><path class="cls-2" d="M1868.1,1538.55c9.9-4.55,20.9-3.55,31.69-1.16,2.67-.46,5.37-1,8.09-1.51,10.87-2.13,22.12-2.88,34.12-3.88,21-2,43-7,65-6-8-2-16-5-24-4,67-1,135,4,200-3,74-8,146,7,219,9,11,0,21-3,32-4-54,27-121,1-180,3-26,1-49,14-75,13-56-4-114-16-171-6,5-2,11-2,16-2-4,2-9,5-13,4-24,0-46,5-70,9-10,2-21-3-31-1-3.33.67-6.6,1.48-9.78,2.2C1887,1544,1874,1541,1861,1544c0-3,4-3,4.76-4.75C1867.22,1538.79,1868.1,1538.55,1868.1,1538.55Z" transform="translate(-39.47 -1434)"/><path class="cls-2" d="M476.43,1566.32c2.57.68,5.57.68,8.57,1.68-14-1-25,9-38,9,10-8,22-13,35-10,29,7,55,5,84-1,21-5,37,13,56,15,24,2,47,1,70,1,20,1,40,3,61,1,11-1,20-9,31-11-4-5-9-3-14-5s-10,2-15,3c-8,1-16-1-23-1-27,0-52,5-79,3-11-1-21,7-32,5-14-4-24-15-38-13-41,6-76,6-117,0-12-1-23,6-35,8,12-11,34-26,48.06-8.61A7.82,7.82,0,0,1,476.43,1566.32Z" transform="translate(-39.47 -1434)"/><path class="cls-2" d="M2278.1,1463.68c3.9-.68,6.9-1.68,10.9-2.68,54-6,113,7,165-12,32-12,78-16,108,9-23-13-51-9-76-7h-4c-10,3-12,17-23,19-8,1-15-5-23-5-51,0-102,11-152.2-1.29C2280.28,1463.67,2278.1,1463.68,2278.1,1463.68Z" transform="translate(-39.47 -1434)"/><path class="cls-2" d="M2085.9,1460c25.1-11,50.1-13,78.1-10,5,1,9-1,14-2-13,16-34,13-52,15-4,1-8,2-11,4,6-4,11-9,17-13-15-3-28,3-42.05,5.15" transform="translate(-39.47 -1434)"/><path class="cls-2" d="M39.47,1566.55C68,1545,109,1564,143,1561c-6,2-13,2-19,3-25,1-51-1-75.86,3.15Z" transform="translate(-39.47 -1434)"/></g></svg>