<svg xmlns="http://www.w3.org/2000/svg" xmlns:xlink="http://www.w3.org/1999/xlink" viewBox="0 0 2562.03 1600"><defs><style>.cls-1{fill:url(#linear-gradient);}.cls-2{opacity:0.25;}.cls-3{fill:none;}.cls-4{fill:#f79495;}.cls-5{fill:#1e7864;}.cls-6{fill:#27b18c;}.cls-7{fill:#40cca5;}.cls-8{fill:#229979;}.cls-9{fill:#1d8f72;}.cls-10{fill:#39b999;}.cls-11{opacity:0.7;}.cls-12{fill:#209e7c;}.cls-13{fill:#166654;}.cls-14{fill:url(#linear-gradient-2);}.cls-15{opacity:0.5;}</style><linearGradient id="linear-gradient" x1="1280.03" y1="1600" x2="1280.03" gradientUnits="userSpaceOnUse"><stop offset="0.13" stop-color="#fffe4e"/><stop offset="0.15" stop-color="#fffc65"/><stop offset="0.19" stop-color="#fffa87"/><stop offset="0.23" stop-color="#fff8a2"/><stop offset="0.27" stop-color="#fff6b5"/><stop offset="0.31" stop-color="#fff5c0"/><stop offset="0.35" stop-color="#fff5c4"/><stop offset="0.67" stop-color="#dfe0e4"/><stop offset="0.92" stop-color="#689bda"/><stop offset="1" stop-color="#0f6ad5"/></linearGradient><linearGradient id="linear-gradient-2" x1="1280.2" y1="1420.7" x2="1280.2" y2="1600" gradientUnits="userSpaceOnUse"><stop offset="0" stop-color="#ffae81"/><stop offset="0.02" stop-color="#fbc19b"/><stop offset="0.04" stop-color="#f8ceae"/><stop offset="0.06" stop-color="#f6d6b9"/><stop offset="0.08" stop-color="#f5d9bd"/><stop offset="0.25" stop-color="#fbf3c8"/><stop offset="0.54" stop-color="#dfe0e4"/><stop offset="0.89" stop-color="#2ad8ff"/><stop offset="1" stop-color="#0083b3"/></linearGradient></defs><g id="Layer_4" data-name="Layer 4"><rect class="cls-1" x="0.03" width="2560" height="1600"/></g><g id="Clouds" class="cls-2"><g id="Layer_20" data-name="Layer 20"><path class="cls-3" d="M1011.19,108l.15-.22a5.83,5.83,0,0,1-3.1-1.76c-.84,1.66-1.59,3.32-2.24,5,1.2-.6,2.44-1.17,3.71-1.69Z" transform="translate(0.03)"/><path class="cls-3" d="M103.22,152.41c.26-.48.53-.94.8-1.37a5.3,5.3,0,0,0-4.51,2.24,4.3,4.3,0,0,0,3-1.16A6.46,6.46,0,0,1,103.22,152.41Z" transform="translate(0.03)"/><path class="cls-3" d="M1003.41,135.64a28.76,28.76,0,0,1-8.21,4.12c3.55,1,7.21-1.75,10.1-2.33A15.87,15.87,0,0,0,1003.41,135.64Z" transform="translate(0.03)"/><path class="cls-4" d="M2514.89,641.32c-.47-11.69-1.36-18.1-2.69-19.82-.71-18.59-1.54-7.28-2.5-10.51-1.17-7.74-2.45-10.15-3.85-10.61-1.39-6.68-2.9-15.25-4.51-10.24-1.61,1.45-3.33-7.66-5.16-9.28-1.83,2.24-3.76-3.47-5.8-10-2,.8-4.18-10.14-6.42-5.42-2.24,3-4.58-6.36-7-12.12-2.44-2.14-5-.94-7.62-8.58-2.64-4.41-5.38-10.83-8.21-7.09-2.83,6.34-5.75-6.21-8.77-5-3-2.56-6.13-6.67-9.33-8.63-3.19-6.39-6.47-6.26-9.84-8.74-3.37-.74-6.82-1.26-10.35-3a27.1,27.1,0,0,0-10.77-6.47,84.53,84.53,0,0,0-11.11-2.39c-7.5-4.58-15.18-1.38-22.92-5.67-7.74-3.79-15.55.28-23.32-2.22a162.77,162.77,0,0,0-17.7.71,3,3,0,0,0-1.1-.22A107.65,107.65,0,0,1,2322,482c-5-8.3-10.12-10.8-15.39-12.09-5.27,3.74-10.67-10.28-16.23-11.16-2.43-3.14-4.89-3.37-7.38-3.42-2.12-1.6-4.3-3.94-6.55-8.51-5.48-4.88-11.34-2.05-17.51-11.93-6.17-6-12.65-7.41-19.35-8.7-6.71-6.52-13.64-10-20.71-5.64-7.07-9.24-14.29-5.5-21.57-2.75-.89.34-1.77.63-2.65.88-.48-.83-1-1.7-1.45-2.65-4.79-8.5-10-19.81-15.41-17.58-5.44-7.42-11.14-12-17-16.31-2.49.09-5-2.29-7.52-5.2-2.15-5.88-4.77-14.54-8-14.71-3.82-2.87-8.5-9.41-14.3-15.23-3,1.87-6-1.25-9.09-4.94s-6.14-9.28-9.25-8.43c-3.12,1.12-6.26.1-9.42-3.44-3.16-4.15-6.35-1.66-9.56-8.29-3.21-10.63-6.44.42-9.7-3.46-3.25-2.05-6.52,3.78-9.81-6.37-3.3.1-6.61.54-9.94-7.38-3.32,2-6.67-6.28-10-.3-3.36-2.39-6.73-5.52-10.12-3.47-3.39-4.11-6.79,5.24-10.2-1.8-3.42-12.89-6.84-10.19-10.27-3.6-3.44-5.61-6.88-3.3-10.33,1-3.45-9.94-6.91-3.48-10.37-1.78-3.46-6.32-6.93,4.55-10.4,2.11-3.48,2-7,6.49-10.43,1.51-3.48-12.79-7-.13-10.44,2-3.48,7.36-7,1.55-10.44,2.55-3.48,1.8-7,10.12-10.42,4.41-3.48,6-7,1-10.41,4.7-3.46,2.29-6.92,10.2-10.37,6-3.36,7.09-6.62,5.71-9.78,4.92-2.43,4.19-4.8-.89-7.12,2.69a37.89,37.89,0,0,0-4.1.39c-5.67,1.51-10.67,5.06-15.41,5.11-4.74-1.07-9.22,4.82-13.85,9.78-4.63,6.85-9.41,11.28-14.74,9.11-4-1.94-8,3.32-12,3-5.19,3.27-10.83-.23-16.18-.49a5.6,5.6,0,0,0-1.08-.07,5.13,5.13,0,0,0-2-.52c-5-7.48-10.15-7.81-15.71-5.92a31.07,31.07,0,0,1-10.17,1.07c-3.45-1.37-7-7.4-10.55-3.44-3.57,1.78-7.18-4.05-10.83,3.19-3.64-3.85-7.31-4.47-11-2.73-3.68.94-7.37-.83-11.06,1.58-3.69,11.47-7.37-4.54-11,1.84-3.66-4.28-7.29-.18-10.88,3.77-3.59,1.72-7.13,4.26-10.61,2.72-3.49-4.84-6.91-.5-10.26,5.25-3.34,3-6.61,6.39-9.78,4.43-3.17-.38-6.25,3.63-9.21,7.61-3,.89-5.81,9.66-8.52,5.37-2.72-3.66-5.3,6-7.73,8.87-2.44,10.69-4.72,7.79-6.84,7.53a34,34,0,0,0-5.45,8.4,10.39,10.39,0,0,1-5.21-.34c-6.32,3.09-12.66,1.92-19.11,4.33-6.46,10.55-13,7.78-19.77,2.55-7,2-13.83-1.61-20.36,3.22-6.52.36-12.73.17-18.49,8.22-5.76,4.54-11.07,6.21-15.77,12.56-4.71,4.43-8.82,10.68-12.19,16.22a3.86,3.86,0,0,0-.35.58c-3.42-1.13-6.86-2.07-10.32-.16-3.78,9.39-7.58,1.94-11.17-.05-5.59,3-11.28,3.89-17,4.72-5.7,4.88-11.42,8.06-17.07,3-5.64,2-11.22-2.73-16.63,3.5-5.41,5.62-10.66,7-15.66,6.18-6.5.06-12.94,8.8-19.17,9.69-6.24-.6-12.27,5.47-17.95,11.56-5.69-4.27-11,10.77-15.9,14.19-4.86,11.21-9.23,17.84-13,17.56-3.5,6.43-6.5,10.79-9.2,17.25-2.51,6-4.77,11.25-6.93,16.12a49.62,49.62,0,0,0-9.87.63c-7.83-3.47-15.39-1.47-22.68,1-7.29-2.19-14.32,5.43-21.1,7-6.78.13-13.3,3.74-19.6,11.5-6.29,4.4-12.34,12.28-18.18,14.5-5.83,3.84-11.44,13-16.84,16s-10.6,10.85-15.6,16c-4.62,2.77-8.89,8.45-12.73,14.67-4.13.63-8.22,1.13-12.28,2.75-7,5.48-13.87,9.18-20.55,7.53-6.69,5.39-13.19,16.53-19.44,10a33.72,33.72,0,0,0-18.2,11.57c-6,10.35-11.76,9.39-17.3,13.26-5.55,10.12-10.84,6.87-15.77,14.95a57,57,0,0,0-13.58,16.6c-4.09,11.24-7.71,6.47-10.75,18.26-3,10.05-5.49,9.76-7.26,19.87-1.77,9.15-2.85,12.53-3.14,21.49-.12,3.76-.08,12.73.21,20.51.28,7,.81,16.46,1.63,21.31.42,3.75.91,7.33,1.48,10.87s1.24,7.65,2,10.55c1.5,5.06,3.37,16.28,5.69,20.82,2.31,13.35,5.06,13.88,8.31,19.54,3.25,7.29,7,19.32,11.33,17.54,4.33,3.74,9.23,7,14.76,14.87,5.53,3.16,11.7,8.3,18.57,11.48,2.77,3.2,5.59,1.88,8.49,6.13,5.2,12,10.63,9.79,16.25,9.81,5.63,3.5,11.44.25,17.43,7.88,6,2.44,12.15,2.7,18.46,5.82,6.3.41,12.75,3.36,19.33,3.59A28.92,28.92,0,0,0,1282,952c8.13-2.41,16.12-2.11,23.93-1.75,7.81,1.44,15.44.73,22.84-5.1,7.4-5.66,14.58-12.66,21.5-8.2,6.91-1.58,13.56-5.49,19.9-11,6.35-7.62,12.38-5.54,18.07-13.63,5.68,1.24,11-7.66,16-16a10.27,10.27,0,0,1,4.38-3.18c2.73,7,5.79,17.95,9.14,15.82,3.93,4.09,8.28,15.62,13,17.22,4.72-7.19,9.81,18.44,15.23,15.23,5.42.79,11.17,13.49,17.22,13,6,1,12.38,11,19,10.52,6.6,2.5,13.44,4.44,20.5,7.81,7,2.91,14.32,6.24,21.77,4.86,7.44,1,15-1.24,22.8,1.68,7.75-1.12,15.37-4.59,22.81-1.68,7.45-2.91,14.72-1.35,21.77-4.86,7.06-.08,13.9-5.62,20.49-7.81,6.6-.81,12.93-14.33,19-10.52,6-7.24,11.8-9.31,17.22-13,2.72-5.29,5.35-6.11,7.89-7.12a26,26,0,0,0,2.8,5.63c3.07,3.28,6.59,14.54,10.52,19,3.93,11.89,8.28,5.36,13,17.22,4.72,13.18,9.81,4.29,15.23,15.22,5.42,1,11.17,8.94,17.22,13,6.05,6.66,12.38,8.57,19,10.52,6.6,8.44,13.44-.27,20.5,7.81,7.05-.2,14.32,4.35,21.77,4.86,7.44-1.94,15.06,6.53,22.8,1.67,7.75-7.39,15.37-4.43,22.81-1.67,7.45,3.48,14.72,1,21.77-4.86,7.06-1.18,13.9-7.11,20.49-7.81,6.6-4.07,12.93-10.14,19-10.52,6-.79,11.8-11,17.22-13,5.42-6.56,10.51-12,15.22-15.22,4.72-8,9.07-9,13-17.22,3.93-12.5,7.45-15.6,10.52-19,3.07,3,5.68-17.27,7.81-20.49,1-2.9,1.88-4.72,2.66-7.3,5.85,6.5,12,8,18.33,9.8,6.59,10.9,13.43-1.23,20.49,7.81,7,16.38,14.32,6.41,21.77,4.86,7.44-2.18,15.06,6.46,22.81,1.67,7.74,3,15.36,1.93,22.8-1.67,7.45.8,14.72-2.82,21.77-4.86,7.06-.12,13.9-3.08,20.49-7.81,6.6-.19,12.93-2.65,19-10.52,6.05-9.72,11.8-19,17.22-13,5.42-3.68,10.51-16.51,15.23-15.22,4.71,3.26,9.06-6.27,13-17.22q.67-2.48,1.33-4.76c6.87,4.2,13.64-2.77,20.28-3.74,7.44-3.1,14.71,1,21.77-4.86,7,5.72,13.9-5,20.49-7.81a41.24,41.24,0,0,0,19-10.52c6-3.16,11.8-6.32,17.22-13,3.75-3.62,7.33-7.84,10.75-11.26,6.18.52,12.58,4.06,19.17,7.75,7.06,2.59,14.33,2.52,21.77,4.86,7.44,3.22,15.06.51,22.81,1.67,7.75-1,15.36-3.39,22.81-1.67,7.44-8.07,14.71-9.38,21.77-4.86,7.05-.61,13.9,1.89,20.49-7.81s12.93-10.66,19-10.52a27.91,27.91,0,0,1,5-5.62c4.13-.75,8.19-4.12,12.17-7.35l0,0a38.25,38.25,0,0,0,3.85-3c6.19-4.65,12.16-8.37,17.86-12.91,5.76-.69,11.24-10.58,16.38-16,4.77-6.44,9.1-9.81,13-16.83,3.88-5.41,7.33-15.33,10.33-18a72.08,72.08,0,0,1,7.7-18.91c2.13-3.63,3.82-14.59,5.08-19.55,1.26-4.69,2.08-15.37,2.47-19.9A156.5,156.5,0,0,0,2514.89,641.32Z" transform="translate(0.03)"/><path class="cls-4" d="M694.45,237.6c-13-.61-24.56-5.94-36.3-7.11-2.49-4.44-6.58-9-12-9.56a210.55,210.55,0,0,1-26.07-.18A44.61,44.61,0,0,0,609.86,223c-32.7-8.14-73.89-8.43-100.6,11.77-11.16-3.84-26.93-1.78-37.67-1.66-3.06-.79-6.19-2.58-9.19-2.37-7-.51-14.82,3-20,.4-6.19-2.58-12.25-3.15-17.1-.81C411.6,235.33,395,241.5,394,256.6c.35,5,3,14.83,8.1,15.48,7.05.51,10,.3,18.16,1.73,3.14,1.79,4.85-2.34,6.64-5.47,3.13,1.78,6.26,3.57,9.26,3.36,11-.16,21.58-.29,32.06-.18.65,19.69,35.59,22,64.64,16.2,19.84,9.89,43.28,10.37,64.07,3.81,7.84-2.14,14.13-8,17.49-15.95,17.69.29,33.67-1.48,36.38-13.16A35.7,35.7,0,0,0,671,260.29c3.85-2.27,10.19,2.3,14-1C691.5,252.84,707.55,238.69,694.45,237.6Z" transform="translate(0.03)"/><path class="cls-4" d="M74.83,175.84C80,177.7,85,172.67,90,172.43c-.93,10.67.85,12,4.22,8.58,3.85,8.48,9.77,6.39,16.07,2.3,6.3,3.91,13-13.64,18.3-2.15,3.54,5.61,7,3.31,10.38.24,2.49,2.81,5.05-1.71,7.62-3.24,6,4.47,12.14,2.13,18.35,4.68,6.21,4.29,12.49.79,18.77,2.74,6.29,1.11,12.58,2.74,18.8.35,6.23,2.76,12.39-.82,18.42-2.46a24.69,24.69,0,0,1,5.43-4.24c3.53,3.7,7.78,2.91,12.08,2.43,5.8-4.92,11.69-13.41,16,3.63,7.5-.28,15.87,2.77,24.25.28,8.37-4.68,16.75-8,24.25-4,7.5-12.16,14.12-17.87,19-8.91,4.87-6.33,8-1.24,8.5-14.34.75-9.76-1.88-15.76-6.66-13.66-4.78,7.53-11.72-6.48-19.59-7.84-7.71-10-16.31-12.47-24.67-2.5-2.85-3.76-5.86-5.81-9-1.65a8.36,8.36,0,0,1-1.53.65,20.46,20.46,0,0,0-3.14.24c-4.94-.61-10.16-5.4-15.55-8.65-7.11-4.82-14.52-10.14-22-3.2-7.47-5-15-1.63-22.38.16-4.55-1.79-9-3.46-13.41-2.64-5.62-8.45-11.6-8.54-17.8-4.94-6.68,7.19-13.61-.67-20.62-2.52-7,4.47-14.09-2.56-21.07,1.24-7,.44-13.86,3.34-20.46,4.18-5-1.41-7,5.58-6.63,11.25a28.09,28.09,0,0,0,1.73,9c-2.66-.64-5.28-1.11-7.86,1-6.44,6.66-12.58,7-18.24,6.8a48.52,48.52,0,0,0,2.65,4.33c-5.53,1.54-11.21-7.15-16.9.26-6.12,3.87-12.26,4.18-18.26,3.22-6,2.73-11.89,1.81-17.49,4.19-2,1-3,8,1,9,6.5,2,13.43,6.16,20.56,5.81C60.27,173.2,67.59,176.6,74.83,175.84ZM104,151c-.27.43-.54.89-.8,1.37a6.46,6.46,0,0,0-.67-.29,4.3,4.3,0,0,1-3,1.16A5.3,5.3,0,0,1,104,151Z" transform="translate(0.03)"/><path class="cls-4" d="M1132,447.58c7.45-4.66,14.16-4.61,19.8-5l.22-.1.24.49c3.06-3.47,7.49,1,13,6.42,5.48,1.46,12,5.61,19.24,4.32,7.24,2.06,15.2,1.26,23.56,1.59,8.36,4.94,16.32,2.45,23.56-1.59,7.24,1.81,13.76-1.43,19.24-4.32,3.72.2,7,.36,9.62-1.73a53.27,53.27,0,0,1,6.33,1.7c8.63,3.63,16.71-6.43,23.66-2.57,4.62-1.87,8.74-6.82,12.18-8.2a31.3,31.3,0,0,1,3.33.13,5.07,5.07,0,0,1,1.31,1.31c.59-.3,1.14-.56,1.66-.8a18.69,18.69,0,0,1,4.14,1.57c7.1,2.49,13.76,3.4,19.47-2,5.71,2.8,10.49-5,13.84-5.23s5.26-4.68,5.26-7.35c0-7.47-1.92-3.78-5.26-7.35-3.35-3.09-8.13-3.81-13.84-5.22-5.56-.95-12,.31-18.88-1.81,0-.06,0-.11,0-.18,0-6-2.63-7.38-7.22-7.34-4.58-3.93-11.12-1.47-18.94-5.21-5.81.46-12.34-.94-19.29-1.63-.81-4.35-3-7-6.3-8.4-4.22-1.66-10.24-10-17.45-8.85-7.21-5.45-15.6-1.86-24.56-3.37-9,1.95-17.35-1.54-24.56,3.37a28.15,28.15,0,0,1-6.6,4.8c-5.51-1.42-11.4-.59-17.5.22-7.87,3.4-15.36.61-22.18,1.61-6.81-3.35-13,4.48-18.1,4.39-5.16.5-9.33,5.31-12.21,6.51-2.1,2.18-3.51,2.12-4.13,4.32a16.6,16.6,0,0,0-6.88,1c-8.6-3.6-16.8-2.6-24.25,1.82-7.45,3.26-14.17,6.35-19.8,5-5.64-3.28-10.2,5-13.36,7.35-3.15,7-4.89,3.35-4.89,9,0,4.84,1.74,6.26,4.89,9a36.23,36.23,0,0,1,13.36,7.35c5.63,7.21,12.35,1.05,19.8,5,7.45.08,15.65,5.13,24.25,1.82C1116.31,454.11,1124.5,445.4,1132,447.58Z" transform="translate(0.03)"/><path class="cls-4" d="M1574.8,117c7.22,5,17.13,8.55,24,10.08a81.8,81.8,0,0,0,12,1,52.76,52.76,0,0,0,12.2,9.17c13.43,7.2,29.37,8.59,44.66,5.92,5.39-1.51,9.26-5.3,12.5-9.57a43.16,43.16,0,0,0,16.11,7.43c17.53,4,36.62-3.19,48.44-17.2a15,15,0,0,0,3.46-5.85c2.13-6.54,0-14.45-6.6-16.53a62.84,62.84,0,0,0-21.85-3.07c-2.33-16.15-21.22-23.2-38.94-21.89l-1.14-.77c-17.14-11.3-39.4-9.23-59.85-5a18.69,18.69,0,0,0-7.85,3.51c-17.52-2-34.78.88-47.69,11.71.77,1.08,1.59,2.1,2.42,3.08a45.21,45.21,0,0,0-22.48,8.21c-1-.09-1.9-1.17-2.81-2.25-2.43,4.8-2.87,9.79.77,14.12A29.94,29.94,0,0,0,1574.8,117Z" transform="translate(0.03)"/><path class="cls-4" d="M346.1,591.26A6.83,6.83,0,0,0,342,586c-12.24-5.92-26-9-40.19-9.7A12.82,12.82,0,0,0,300,574c-8-7-17-13-27-14-19.09-3.32-39.55-5.25-58.56.08A72.71,72.71,0,0,0,188,558c-15.66.92-32.16,15.42-39.36,30.21A88.63,88.63,0,0,1,139,588c-19-2-39-9-57.37,3.48a37.53,37.53,0,0,0-5.78,2.59c-3.15,3.11-4.9,4.63-4.9,9,0,4,1.75,8.51,4.9,9,3.15-1.86,7.71,4.71,13.35,7.36a40.35,40.35,0,0,0,9.22,2.44A67.69,67.69,0,0,1,109,624.4c22,.6,46,6.6,66-8.4,2-1,5-2,8,0l.33-.49c5.31,7.09,16,11.18,23.67,13.49,4,2,9-1,14.36,2.06,3.93,1.05,8,2.14,12.19,1.1,8.35-1.34,16.31-.48,23.56-1.59a46.74,46.74,0,0,1,10.31-2.07c3.85-.83,8.84-1.94,13.61-3.41,5.17.76,10.24,1.34,16,1.91,11.86,2.79,28.59,4.11,38.63-2.13A97.61,97.61,0,0,0,351,626c11-1,26-9,24-18C371.08,594.77,359.23,590.44,346.1,591.26Z" transform="translate(0.03)"/><path class="cls-4" d="M946,634c-8.08-4.35-17.71-7.54-27-7.17,1.43-5.22-11.32-10.4-21.83-12.25,1.56-10.8-2.26-21.5-15.21-24.58a27.14,27.14,0,0,0-22.33,6.23A27.08,27.08,0,0,0,852,595c-11.9-.85-23.8,7-28.33,17.94C808,612.34,790.86,618.41,786,633c-7,22,23,27,40,31,7.06,1.57,12.87-1.79,17-6.68,9.92,8,23.93,10.49,36,9.68,6.73-.67,15.71-3.16,20.57-8.67,9.22,1,18.4-1.57,23.08-8.38l.35,0c9,0,19-1,25-9C949,638,948,634,946,634Z" transform="translate(0.03)"/><path class="cls-4" d="M883.55,115c-.64,1.4.39,1,2-.13A2.66,2.66,0,0,0,883.55,115Z" transform="translate(0.03)"/><path class="cls-4" d="M1036.18,149.24l-.08.06c4.21,1.33,8.47,1.42,12.76,2.4A105.12,105.12,0,0,0,1036.18,149.24Z" transform="translate(0.03)"/><path class="cls-4" d="M1023.72,145.09a78.9,78.9,0,0,1-7.76-2.64c-3,4.55-7,3.55-7,1.55a18.46,18.46,0,0,0-3.7-6.57c-2.89.58-6.55,3.33-10.1,2.33a28.76,28.76,0,0,0,8.21-4.12,15.87,15.87,0,0,1,1.89,1.79A3.12,3.12,0,0,1,1009,139c4,6,11-4,15.74,2.84,4.28-.13,8.37-3.31,12.12-1.8a5.7,5.7,0,0,1,1.29-1.07,47.43,47.43,0,0,0,5.94,2.18c2.9.07,5.8,4.51,8.71,0,2.91,2.14,5.82-1.75,8.73,1.61,2.91,2.11,5.83,5.7,8.75,1.54,3.39-2.34,6.78-2.7,10.24,1.48,3.29-2.76,6.62,6.24,10,1.56,3.35,1.52,6.92,1.28,10.69,3.92C1122,162,1144,150,1162,138c1,0,2,2,3,2a25.93,25.93,0,0,1,21.7-4.89,24.93,24.93,0,0,1,8.56,7.62c2.18,5,4.36,2.29,6.54,1.67,2.19-.18,4.38-.4,6.57,1.64,2.45-.34,5.22-.25,7.79-.59,2.58,3.76,5-1.79,6.61-6.67.85-.15,1.53-.43,2-6a34,34,0,0,0,.47-7.15c-.28-3-1.84-8.07-5.28-9a16.69,16.69,0,0,0-7.09-.92c-2.37-2.73-4.75-.34-7.13-2.35-.92,1.58-1.84,2.13-2.76,2.14-.84-.41-1.68-1.46-2.54-3.63-1.9-.68-3.84-2.38-5.82-3.85-2-3.59-4-1.82-6-2.41-2,1.11-4.12-.93-6.22-2a8.39,8.39,0,0,0-6.4-2.86c-2.16,0-4.42.43-7.29,0-9.35-1.67-19-.78-28.75-.73a5.72,5.72,0,0,0,.71-3.43c-.21-.85.35-3-1.28-3.8-1.63.59-3.63-1.3-5.83-3.25s-4.62-4-7.08-3.6c-2.45-.36-5-5.34-7.35-2.89-2.4-2.71-4.68-.48-6.69-1.15-2.06,4.65-4.19-2.77-6.35-1.33s-4.37,2.15-6.6-.67c-2.23-4.12-4.49-1.46-6.75,0-3-.27-6-.3-9,1.75-3-4.11-5.87-1.59-8.8,2-2.45,2.29-4.9-1-7.37,1.5-2.46,5.29-4.93-2.3-7.41,1-1.87-2.22-3.75-3.6-5.83-3.1-16.4-12.81-37.94-16-55.31-4.09-6,5-12,10-20,14-1,1-5,2-6,5-1,1-3-1-4-1a22.06,22.06,0,0,0-1.61,8.24,43.65,43.65,0,0,1-5.95-5c-3.48-.76-6.93-1-10.25-6-3.32,4-6.67.1-10-.06-3.35,2.81-6.72,3.74-10.06,2.2-3.34,2.4-6.66,9.43-9.92,1.37-3.27-4.35-6.49,2.43-9.63,3.9-3.14.45-6.2,2.76-9.16,3.87-3.32,5.9-6.56,4.52-9.71,4.47-1.79.92-5,3.48-7.12,4.92A2.4,2.4,0,0,1,887,117c-1,2-4,3-4,6,3,0,6-3,9-3v4c13,3,26,4,36.52,12,2,1.46,3.7,2.7,5,3.82,2.56-3.89,5.14-5,7.73-1.09,2.59-3.52,5.18.48,7.77,4.56,3.45.81,6.89,4.31,10.26,1.13,2.8,2.42,5.75,3.06,8.75.25,3,1.77,6-.82,9-.91,3,4,5.93.43,8.71-2.34,1,0,2-.12,3.07-.25a8,8,0,0,0,2.7,1.8,41.35,41.35,0,0,0,9.34,2.28c3.16,2.14,6.34-.56,9.54,1.41,4.28,2,8.58-.7,12.89,1.23,4.28-2.55,8.55,4.84,12.8,1.42a21.1,21.1,0,0,1-4.11-1.76C1029.22,146.72,1026.46,145.92,1023.72,145.09Zm-15.48-39a5.83,5.83,0,0,0,3.1,1.76l-.15.22-1.48,1.28c-1.27.52-2.51,1.09-3.71,1.69C1006.65,109.37,1007.4,107.71,1008.24,106.05Z" transform="translate(0.03)"/><path class="cls-4" d="M2177.73,259.75c5.26,2,11.35,3.11,17.79,6.36,3.22,3.37,6.51.3,9.78,1,4.07-2,8.43-5.88,12.89-4.14,4.46-3.35,9-3.05,13.49-4a12.59,12.59,0,0,0,8.76-3.23,27.24,27.24,0,0,0,3.76-2.32c2.4.8,4.65,2.47,6.79,1.06,4.34,1.77,8.56-2.6,12.75,1.06,4.18-1.89,8.33,3.42,12.52,2.39A17.3,17.3,0,0,1,2289,262c4,2.12,8.25.88,12.55,1.61,4.29-2.25,8.63,1.72,12.82-.7,4-2.8,7.57.66,11-1,3.88.23,8.91-2.76,13.81-5.46a10.66,10.66,0,0,0,4.56-1.61c2.74.55,5.46.83,8.18,1.26,5.37,1.93,10.72,1.43,16.15,3.45,2.71-2,5.4,2.4,8.1.39,2.7,0,5.4,1.17,8.13-1.14a23.32,23.32,0,0,1,8-2.64c4.23-3.17,8.82-5.09,13.29-7.6s8.82-6.66,12.55-8.42c.41-.6.82-1.16,1.22-1.69A12.5,12.5,0,0,1,2422,244c3-1.14,6.5-3.34,10-3.25a21.6,21.6,0,0,1,9.36-1.8c-.79.34-1.57,2-2.36,2.05,1.5-.05,3.25-.49,5-4,1.75-.19,3.5-1,5-4-2,3.28-4,3.54-5,1-1-5,0-7.93,4-6-3-3.6-6.56-7.23-10.48-8.44-.25-.25-.5-.48-.75-.7a12.53,12.53,0,0,1,4.23.14c-3.67-3.78-8.33-9.7-13.51-10.89-5.17-.61-10.85-1.07-16.55-3.52-5.69,2.67-11.4.24-16.63,2.51a13.64,13.64,0,0,0-9,2.43,3.74,3.74,0,0,0-1.74-1.15c.21-2.83-.23-5.25-1.56-6.38-3.67-7-8.89-12.33-14.91-12.47-6-.61-12.85-5.28-19.71-4-6.87.72-13.78-3.28-20-2.33a2.45,2.45,0,0,0-1.82.13,20.88,20.88,0,0,1-8.93-3.6c-2.78,1.15-5.73,1.49-8.75-.72a63.26,63.26,0,0,0-17.16,3c-5.49,3.53-10.74,1.47-15.74,6-3.67,3-7.44,5-11.3,5.17-3.85,1.83-7.79,2.72-11.76,4.16-4,1.65-8,4.72-12,4.17-2.86,2.66-5.67-.88-8.36,2.31-2.68,2.66-5.24,3.15-7.57,4.19-2.49,1.57-4.35,5.9-5.44,9.49a17.41,17.41,0,0,1-9.85-1.48c-4.29.76-8.64,1-13.1,3.49-3.63-1-7.19-1.55-10.58.71a26.06,26.06,0,0,0-17.4,4.19c-4.51-4.93-7.38,5.3-7.63,9.6,0,4.23,1.8,11.36,4.92,14.71C2168,249.72,2172.46,256.48,2177.73,259.75Z" transform="translate(0.03)"/></g></g><g id="Hills_back" data-name="Hills back"><path class="cls-5" d="M1380.3,819.81c-500,41.61-466.67-93.42-761.1-97.1-144.13,12-260,84.57-260,84.57v231.77l1021.06-18.79-1.56-202" transform="translate(0.03)"/></g><g id="Hills_Top" data-name="Hills Top"><path class="cls-6" d="M0,533.05c132.57,8.12,214.8,68.48,271.74,99.78,141,93.27,220.74,256.17,403.46,282,68.32,9.65,654.25-197.07,684-201.06,93-12.45,127.33,12.57,129.2,11.58,0,0,309.21-131.67,410.38-122,52.31,2.27,101.16,62.27,113.44,60.69,3.29-4,35.12-20.67,55.62-29.25,66.34-24.45,110.12-15,144.18-29.42S2409.9,532.75,2560,533.05V1600H0" transform="translate(0.03)"/><path class="cls-7" d="M775.78,905S991.19,838.42,1009,834.23c63.11-20.74,110.74-43.1,196.06-59.21,83.07-35.6,139.91-51.14,158-54.57,59-14.15,96.7,4.57,86.55,9.14s-43.84,20.95-50.56,25.56-60.68,20.63-71.11,26.12-52.52,2.89-123.13,42.54-84.12,35.16-108.51,37.62-90.4,17-127.5,29.39-80.54,3.49-118.06,18.89S787.7,912.37,775.78,905Z" transform="translate(0.03)"/><path class="cls-7" d="M1885.66,612.87c-19.05,0-71.5,4.2-113.78,19s-52.57,13.48-76.75,29.23-44.41,13.24-55.51,19.64-51.83,10.78-123.87,55.93S1106.07,904,1197.84,889.39s72.72,48,176.79-14.6C1480.72,811,1477.63,818.24,1528,800c57.1-20.68,167.83-55.32,214-62.12s83-15.44,101.89-29.17,29.13-20.6,53.47-24.61,38.15-29.3,38.15-29.3,20.06-16.71,6.57-26.69S1904.7,612.87,1885.66,612.87Z" transform="translate(0.03)"/><path class="cls-7" d="M2560,644.94c-13.75,12.28-45.94,37.29-73.74,30.9-36.49-8.39-75.32,26.45-103.08,35.92s-32.26,11-62.1,16.28-114,9.74-136,1.78-86.38,26.28-102.74,24.23-46.27,5.57-79,12.53c-35.78,7.62-119.54,51.39-206.23,28.07,108.9-43.76,241.3-134,265.74-147.22s80.3-24.27,119.11-20.25c9.46,2.47,40.13-3.81,110.58-32s100.76-29.9,100.76-29.9c40.73-8.77,80.62-18.42,130.18-18l36.49-.62" transform="translate(0.03)"/><path class="cls-7" d="M0,546.7c31.5-.23,62.24,9.78,77.87,18.23s34.92,23.2,25.22,29.68-28.25,6.45-36.49,13.54-17.51,20.68-32.24,23.07S8.55,636.84,0,644.4Z" transform="translate(0.03)"/><g id="Top_Hills_Shade" data-name="Top Hills Shade"><path class="cls-8" d="M2012.26,664.08c-21.78,4.88-130.92,81.78-138.88,86.33s-156.23,67.39-165.31,68.21c-5.18.48-82.87,37-168.17,80.34-43.32,17-134.19,74-212,120,87.19-55.58,179.2-116.21,234.19-138.09,52.82-30.62,113.06-61.33,179.61-92.13,36.27-17.89,110.12-35.43,131.72-50.87s108.45-63,111.77-73.8-15.88-29.85-15.88-29.85Z" transform="translate(0.03)"/><path class="cls-8" d="M1488.44,725.34c-57.07,31.51-130.53,71.51-131.07,73.09S1274.7,827,1239.7,843.86c-28.72,10.62-73.31,33.56-126.74,63.37-17.41,11.82-85.26,37.55-151,62.71-79.59,20.11-106,24.94-50.1,6.16,37.15-10.27,132.81-49.07,157-57s109.06-64.16,151.53-80.72c28.41-11.85,62-24.34,107.45-38.35,43-18.33,85.27-36.5,105.29-49.59Z" transform="translate(0.03)"/><path class="cls-8" d="M2213.93,1003" transform="translate(0.03)"/><path class="cls-8" d="M838.79,1051.19s98.42,13.09,150.61,3.39,106.86-24.8,180.61-15.53,76.69,21.06,113.88,36.42,90.74,17.79,177.9-9c105.61-20.14,342.53,24.54,342.53,24.54l145.82,32.32-401.6,121s-203.13,33-197,32.34-318.19-6.91-318.19-6.91l-185.56-82.55L785,1196.13s-171.43-17.07-85.72-81S632.67,970.76,625.39,1003C624.43,1007.23,837.83,1055.42,838.79,1051.19Z" transform="translate(0.03)"/><path class="cls-8" d="M2526.23,1159.1s15.25,2.18,33.78-10c0,3.65,0,32.35,0,32.35C2285.23,1289.51,2319.09,1162.53,2526.23,1159.1Z" transform="translate(0.03)"/></g><g id="Layer_21" data-name="Layer 21"><path class="cls-8" d="M160,572.35c53.87,24.87,108.22,52.29,161.19,97.58l161.19,151c45.75,34.74,107.6,83.36,197.57,94.25-5.62,36.18,119,218.3,45.15,211.79C731.17,1224.24,65.67,1270.3,0,1185.51v-36.69c18.29-20.18,63.67-44.73,125-107.17s62.48-120.22,94.81-180.22,34.47-112.81,30.8-126.36S238,682.87,201,662s-45.4-56.48-53-94.79Z" transform="translate(0.03)"/><path class="cls-8" d="M840.4,1051.47c-94.79-16.32-150.33-71.77-160.46-136.33L655.52,915l50.32,160.54Z" transform="translate(0.03)"/></g></g><g id="Hills_Middle" data-name="Hills Middle"><path class="cls-9" d="M1379,1233.88c265.77-152.88,530.14-274.6,556-285.63s160.74-61.41,470,137.59c66.25,37.45,155,86.81,155,86.81V1600H0s0-296.54,0-310.78c313.37-170.41,410.18-162.07,567-214.31,138.64-13.83,258.91,80,622.93,136.25C1270.18,1223.57,1336.35,1230.23,1379,1233.88Z" transform="translate(0.03)"/><path class="cls-9" d="M0,1172.92c8.26,4.61,56.48,22.46,95.44,33.74L83,1217.13l-42.94,3.27L0,1199.09C0,1188.61,0,1176.9,0,1172.92Z" transform="translate(0.03)"/><path class="cls-10" d="M1158.1,1214.09c275.08-19.63,625.74-197,733.14-254.56,3.1-1.67,8.46-4.89,16.32-8.53,107-49.63,232.9,5.6,301.66,36.93,14.14,6.44,74.08,42.88,194,115.77,0,0,122.33,74.41,156.81,91,0,19.73,0,405.58,0,405.25H0l0-311.1C0,1281,0,1260,0,1195c99.07,30.92,344.28-74.44,536.85-115.18S810.43,1200,1158.1,1214.09Z" transform="translate(0.03)"/><g id="Shade" class="cls-11"><path class="cls-12" d="M2076.72,964.67c-34.87,12.65,39.32,15.47-26.65,23.22s-38.38,25.74-1.32,41.25-59.32,18.52-26,53.47,69,44.64,110.55,44.6,57.22,18.2,80.61,22.46,27.79,4.75,56.82,8,39.64,13.34,72.68,13.34,46.58,16.8,58.45,20.34,28.76,37.28,47.26,29.64,80.36,22,93.82,11-9.87-21.25-51.53-50.53-77-35.62-101.16-51-69.05-31.72-106.77-71.56S2112.51,951.7,2076.72,964.67Z" transform="translate(0.03)"/><path class="cls-12" d="M802.48,1157.63c28.41,0,94.42,23.73,107.4,38.9s94.67,31.42,150.7,27c75-5.89,126.53,9.6,136,18.24s-24.27,2.47-88.85,9.28-67.63-4.12-110.24-5.6-48-21.25-127.69-22.89-236.11-42.3-144.68-42.52S774.08,1157.63,802.48,1157.63Z" transform="translate(0.03)"/></g><path class="cls-7" d="M765.94,1151.66c-3.54-13.78-19.84-27.14-64-39.61-35.17-4.69-71.9-11.52-109.68-19.8-47-17.28-428.46,102-470.24,113.23,6.73-2.78,24.33,4.72,23,10.18,29.54-15.58,241.41-74.9,289.46-66.51,23.25,1.37,32.45,3.61,43.53,16.22,9.89-7.13,16.56-13.92,57.88-24.37,15.57-4.54,20.84,5.1,21.33,21.32C574,1143,593.14,1126,628.85,1125.76,665.17,1124.52,710.26,1132.52,765.94,1151.66Z" transform="translate(0.03)"/><path class="cls-7" d="M2000.62,956.05c5.83-8.55-21.47-15.36-59.1-4.1-13.78,3.27-95.39,39.26-133.86,71.06-24.45,17.23-53,38.44-99.89,50.91-52.9,16.24-114.47,38.61-187.11,68.79-60.28,25.12-120.17,48.13-177.29,55.88l-132,19.85s165.16,8.48,224.54-5.74,156.17-48.15,156.17-48.15c77.21-26.47,145-31.15,235.22-87.76,56.49-31.1,81.93-57.08,100.68-78.72S1994.78,964.6,2000.62,956.05Z" transform="translate(0.03)"/></g><g id="Hills_Low" data-name="Hills Low"><path class="cls-12" d="M0,1257.22c41-.39,263.67.62,540,62.36,306.33,68.45,683.76,47.74,746.81,41.88,231-13.89,304.63-46.83,562.59-84.72,247.76-36.39,687.4-21.22,710.65-19.61V1600H0" transform="translate(0.03)"/></g><g id="Layer_13" data-name="Layer 13"><path class="cls-13" d="M0,1400.75c18.49-4.29,54.3-6.68,79.66-8.58,37.06-2.16,266.29,3.24,380.3-1.9,105.84,1.07,187.28,5.2,252.09,11.43,39.49,1.31,69.2,9.46,97.3,18.74h338.34c185.74-11.29,446.17-32.2,528.51-30.17h141.52c156.76-2.08,210.14,8.85,275.79,15.09,111.59,9.89,123.32,12.62,131.1,15.08h262.91l-2,72.65L0,1510.09Z" transform="translate(0.03)"/><path class="cls-13" d="M2560,1400.66c-8.42,1.32-21.55,4.32-24.22,4.85-3,.6-42.75,8.13-48.26,15.19-77.65,66.65,38.07,100.58,72.48,78.51Z" transform="translate(0.03)"/><path class="cls-13" d="M2490.1,1421.61a30.91,30.91,0,0,0-5.49,1.75c-15.37,7.86-21.08,46.18-6.36,60.8,19,18.86,74.06.34,77.69-24.8,2.35-16.23-16.54-36.53-34.23-40.17C2509.13,1416.61,2491.37,1421.27,2490.1,1421.61Z" transform="translate(0.03)"/></g><g id="Water"><rect class="cls-14" x="0.03" y="1420.7" width="2560.34" height="179.3"/></g><g id="Water_Ripples" data-name="Water Ripples" class="cls-15"><path class="cls-4" d="M244.56,1459.68a52.28,52.28,0,0,1,11,2.22c1.85.55,3.84.95,5.86,1.37l6.59.73c9,2,18-1,26,0,37,2,74-2,111.29-2.84,4.25-.25,8.67-.33,12.39-.62,37.15-2.87,74.24-6.79,111.32-10.54-1,0-2-1-3-1,26-5,53-3,79,1-5-5-12-3-18-5,20,3,41,12,62,5-6,6-13,7-21,9,36-7,76-25,111-6-6-4-12-7-19-8,10,2,19,6,29,6,12,0,24,2,36,3,5,0,11,1,16-1-13,6-26-2-39,3,23,5,43,0,65-9,11-4,20,10,32.43,13.9,2.16.17,4.43.07,6.66.1a36.25,36.25,0,0,1,6.91,0,22,22,0,0,0-8-1c17-2,34,0,51,0-8-3-16,1-24,0,43-1,86,1,127,13-3-1-5,2-8,3,15-6,29-15,46-17,14-1,26,7,40,3a11.35,11.35,0,0,0-8-3c24-9,47,2,71,5,8,1,16-4,24-1a159,159,0,0,0,65,4c-2,1-3,2-5,0,2,1,4,3,6,2-21,4-41,7-63,1-11-3-22,3-33,5,3,1,6-5,9,0-19,4-41,7-58-3l2,2c-13-1-26-2-38-6-16-5-34,5-43,19,1-1,1-2,2-3a17.11,17.11,0,0,1-9.67,6.46C1011,1494,1006,1488,999.75,1485a76,76,0,0,0-9.77-3.83c-26.94-8.74-54.78-6.34-82-7.14a31,31,0,0,1,13-6c-18,0-37-2-55-2,3,2,6,0,9,2a72.34,72.34,0,0,0-7.5-.3c-2.5,0-5,.11-7.5.18-2-.88-5,.12-7-.88-15-16-35-9-53-4-11,3-22-1-33-2,14-1,29,6,42-1a306.66,306.66,0,0,1-80,1c8,5,18,8,27,5-3,1-6,2-8,2-34-13-70-7-104,1,8-7,18-6,27-9-26,3-52,8-77-2,9,2,17,6,26,8a245.59,245.59,0,0,0-81-8l2-2c-2,0-3,1-5,1,1,0,2,1,3,1a1104.64,1104.64,0,0,1-111.41,8.42c-2.86-.18-5.25-.27-8-.48C392,1465,363,1469,335,1466c-21-2.25-41.44-2.81-61.84-3.17-6.81-.12-13.61-.22-19.73-1.48C247.8,1460.22,244.56,1459.68,244.56,1459.68Z" transform="translate(0.03)"/><path class="cls-4" d="M646.9,1522.62C675,1523,702,1519,730,1517c21-2,42-6,63-4-3,3-7,3-11,3,4,3,8,9,14,8,27-3,53-5,80,1h-3c6-1,12-4,18-3,29,6,53-6,79-2,31,4,62-1,91-10,32-10,63,9,97,2,4-2,8-4,13-5,2,0,4,1,6,2-3-1-6-2-8-1-33,18-70,9-104,2-15,45-73,19-109,20-3,0-6,2-9,4,1-1,3-1,4-1-4,2-9,3-13,4,1-2,3-4,4-6-6,2-12,3-17,1-21-8-39-1-58,5,3-2,5-4,9-5-3,1-5,3-8,4-10.5,1.5-21,1-31.38,1.38-2.59.09-5.39.19-8.45.34C814,1538,801,1543,787,1546c-6,2-11-1-17-3,6-1,12-4,10.75-11a10.39,10.39,0,0,0-5.75-5,41,41,0,0,0,11-1c-17.08-5.83-34.69-6.81-52.45-5.23-3.55.31-7.11.73-10.68,1.23C694,1525,667,1537,637,1536c3,0,6-1,7-3,0-3-4-1-5-2-3-3,1-3,2.38-5.4C644.56,1523.86,646.9,1522.62,646.9,1522.62Z" transform="translate(0.03)"/><path class="cls-4" d="M58.38,1514.24C80,1499,108,1494,133,1505c4,2,8,0,12,2a60.64,60.64,0,0,0,9.93,3.91c14.07,3.09,28.07-.91,41.27-4,3.53-.91,6.89-1.78,10.25-2.54A80.07,80.07,0,0,1,227,1502c24,0,47,1,70-5,26-7,52-4,78-1-2,3-5,6-5,9-1,1,2,1,4,1a9,9,0,0,0-5-1c1,0,3-1,4-1-14-4-28,2-42,0-22-4-41,4-62,7-2.5.17-5,.19-7.5.15s-5-.17-7.5-.3c-12-1.85-25-1.85-37,2.15-36,14-83,26-115.66,2.36-1.34-1.28-3.06-2.64-4.78-4-3.45-2.77-6.89-5.66-10.56-8.33l5-5c-9,0-15,7-23.06,10.32C62.69,1511.42,58.38,1514.24,58.38,1514.24Z" transform="translate(0.03)"/><path class="cls-4" d="M64.49,1435.71C83,1447,105,1453,126,1458c-4,0-9,1-13-1-15-6-30-11-45.93-12.64Z" transform="translate(0.03)"/><path class="cls-4" d="M1456.53,1458.66C1477,1445,1499,1435,1524.16,1441a32.78,32.78,0,0,1,7.49,2c27-2.75,54-5,81.35-5,7,0,14-4,21-3,18,0,35,4,53-1-2,1-4,1-5,4,12-2,22,1,34,3,16,3,32-3,48-2a9.08,9.08,0,0,1-7,3c23,8,46,2,69,4h-1c36,3,71,2,107,3-31,1-62,10-92.8,10.47-3.76,0-7.4-.15-10.8-.25s-6.47-.39-9.46-.69C1799,1456,1779,1456,1759,1451c2,0,4-1,4-3-29,1-57,0-86,0a35.52,35.52,0,0,1,9-4c-7,2-15,3-22,2-22-1-44,5-66,4-5-1-11-2-16-4,1,0,1-1,2-1-16.25-.42-32.67-1.7-49.16-2.6-3.84-.89-7.89-2-12.21-3.14-22.63-4.26-45.63-2.26-65,12.1Z" transform="translate(0.03)"/><path class="cls-4" d="M1349.13,1528.75a25.56,25.56,0,0,0,10.9,4,27.12,27.12,0,0,0,11-.76c17-4,32-14,49-11,22,5,42,11,64,3,14-5,28,4,42,5-6,1-9-4-14-6,4,2,9,1,13,1,14-2,27-10,41-6-4-4-10-7-16-6a12.75,12.75,0,0,1,12,0c24,9,46,8,71,7,11-1,20,8,30,9,11,1,26,1,34-9,1,9-11,10-17,14,30-10,62-18,94-16-43,0-84,31-127,20,36,10,75-10,111-16-7,5-15,4-22,7-11,5-23,2-35,5-14,4-28,14-42,10-24-9-49-2-74-4-19-1-38-4-57-1,18-5,37-2,55,2-12-2-24-9-35-6-23,8-43-4-66-3,12-2,24,2,35,7-6-2-12-6-18-5-29,2-54,4-82-8-10-4-22,3-34,7-8,3-17,3-25.11,1.39A56.78,56.78,0,0,1,1349.13,1528.75Z" transform="translate(0.03)"/><path class="cls-4" d="M1401.8,1483.34c5.2-.34,11.2-3.34,16.2-1.34,29,10,60,14,87-3-23,20-54,24-83,14-12-4-24,0-37-2-5-1-8-4-12-7,8,2,15,0,23.24.3C1399.53,1483.77,1401.8,1483.34,1401.8,1483.34Z" transform="translate(0.03)"/><path class="cls-4" d="M1868.1,1538.55c9.9-4.55,20.9-3.55,31.69-1.16,2.67-.46,5.37-1,8.09-1.51,10.87-2.13,22.12-2.88,34.12-3.88,21-2,43-7,65-6-8-2-16-5-24-4,67-1,135,4,200-3,74-8,146,7,219,9,11,0,21-3,32-4-54,27-121,1-180,3-26,1-49,14-75,13-56-4-114-16-171-6,5-2,11-2,16-2-4,2-9,5-13,4-24,0-46,5-70,9-10,2-21-3-31-1-3.33.67-6.6,1.48-9.78,2.2C1887,1544,1874,1541,1861,1544c0-3,4-3,4.76-4.75C1867.22,1538.79,1868.1,1538.55,1868.1,1538.55Z" transform="translate(0.03)"/><path class="cls-4" d="M476.43,1566.32c2.57.68,5.57.68,8.57,1.68-14-1-25,9-38,9,10-8,22-13,35-10,29,7,55,5,84-1,21-5,37,13,56,15,24,2,47,1,70,1,20,1,40,3,61,1,11-1,20-9,31-11-4-5-9-3-14-5s-10,2-15,3c-8,1-16-1-23-1-27,0-52,5-79,3-11-1-21,7-32,5-14-4-24-15-38-13-41,6-76,6-117,0-12-1-23,6-35,8,12-11,34-26,48.06-8.61A7.82,7.82,0,0,1,476.43,1566.32Z" transform="translate(0.03)"/><path class="cls-4" d="M2278.1,1463.68c3.9-.68,6.9-1.68,10.9-2.68,54-6,113,7,165-12,32-12,78-16,108,9-23-13-51-9-76-7h-4c-10,3-12,17-23,19-8,1-15-5-23-5-51,0-102,11-152.2-1.29C2280.28,1463.67,2278.1,1463.68,2278.1,1463.68Z" transform="translate(0.03)"/><path class="cls-4" d="M2085.9,1460c25.1-11,50.1-13,78.1-10,5,1,9-1,14-2-13,16-34,13-52,15-4,1-8,2-11,4,6-4,11-9,17-13-15-3-28,3-42.05,5.15" transform="translate(0.03)"/><path class="cls-4" d="M39.47,1566.55C68,1545,109,1564,143,1561c-6,2-13,2-19,3-25,1-51-1-75.86,3.15Z" transform="translate(0.03)"/></g></svg>