<svg id="Layer_13" data-name="Layer 13" xmlns="http://www.w3.org/2000/svg" viewBox="0 0 2560 120.07"><defs><style>.cls-1{fill:#166654;}</style></defs><path class="cls-1" d="M0,1400.75c18.49-4.29,54.3-6.68,79.66-8.58,37.06-2.16,266.29,3.24,380.3-1.9,105.84,1.07,187.28,5.2,252.09,11.43,39.49,1.31,69.2,9.46,97.3,18.74h338.34c185.74-11.29,446.17-32.2,528.51-30.17h141.52c156.76-2.08,210.14,8.85,275.79,15.09,111.59,9.89,123.32,12.62,131.1,15.08h262.91l-2,72.65L0,1510.09Z" transform="translate(0 -1390.01)"/><path class="cls-1" d="M2560,1400.66c-8.42,1.32-21.55,4.32-24.22,4.85-3,.6-42.75,8.13-48.26,15.19-77.65,66.65,38.07,100.58,72.48,78.51Z" transform="translate(0 -1390.01)"/><path class="cls-1" d="M2490.1,1421.61a30.91,30.91,0,0,0-5.49,1.75c-15.37,7.86-21.08,46.18-6.36,60.8,19,18.86,74.06.34,77.69-24.8,2.35-16.23-16.54-36.53-34.23-40.17C2509.13,1416.61,2491.37,1421.27,2490.1,1421.61Z" transform="translate(0 -1390.01)"/></svg>