<svg id="Hills_Middle" data-name="Hills Middle" xmlns="http://www.w3.org/2000/svg" viewBox="0 0 2560.03 668.87"><defs><style>.cls-1{fill:#1d8f72;}.cls-2{fill:#39b999;}.cls-3{opacity:0.7;}.cls-4{fill:#209e7c;}.cls-5{fill:#40cca5;}</style></defs><path class="cls-1" d="M1379,1233.88c265.77-152.88,530.14-274.6,556-285.63s160.74-61.41,470,137.59c66.25,37.45,155,86.81,155,86.81V1600H0s0-296.54,0-310.78c313.37-170.41,410.18-162.07,567-214.31,138.64-13.83,258.91,80,622.93,136.25C1270.18,1223.57,1336.35,1230.23,1379,1233.88Z" transform="translate(0.03 -931.13)"/><path class="cls-1" d="M0,1172.92c8.26,4.61,56.48,22.46,95.44,33.74L83,1217.13l-42.94,3.27L0,1199.09C0,1188.61,0,1176.9,0,1172.92Z" transform="translate(0.03 -931.13)"/><path class="cls-2" d="M1158.1,1214.09c275.08-19.63,625.74-197,733.14-254.56,3.1-1.67,8.46-4.89,16.32-8.53,107-49.63,232.9,5.6,301.66,36.93,14.14,6.44,74.08,42.88,194,115.77,0,0,122.33,74.41,156.81,91,0,19.73,0,405.58,0,405.25H0l0-311.1C0,1281,0,1260,0,1195c99.07,30.92,344.28-74.44,536.85-115.18S810.43,1200,1158.1,1214.09Z" transform="translate(0.03 -931.13)"/><g id="Shade" class="cls-3"><path class="cls-4" d="M2076.72,964.67c-34.87,12.65,39.32,15.47-26.65,23.22s-38.38,25.74-1.32,41.25-59.32,18.52-26,53.47,69,44.64,110.55,44.6,57.22,18.2,80.61,22.46,27.79,4.75,56.82,8,39.64,13.34,72.68,13.34,46.58,16.8,58.45,20.34,28.76,37.28,47.26,29.64,80.36,22,93.82,11-9.87-21.25-51.53-50.53-77-35.62-101.16-51-69.05-31.72-106.77-71.56S2112.51,951.7,2076.72,964.67Z" transform="translate(0.03 -931.13)"/><path class="cls-4" d="M802.48,1157.63c28.41,0,94.42,23.73,107.4,38.9s94.67,31.42,150.7,27c75-5.89,126.53,9.6,136,18.24s-24.27,2.47-88.85,9.28-67.63-4.12-110.24-5.6-48-21.25-127.69-22.89-236.11-42.3-144.68-42.52S774.08,1157.63,802.48,1157.63Z" transform="translate(0.03 -931.13)"/></g><path class="cls-5" d="M765.94,1151.66c-3.54-13.78-19.84-27.14-64-39.61-35.17-4.69-71.9-11.52-109.68-19.8-47-17.28-428.46,102-470.24,113.23,6.73-2.78,24.33,4.72,23,10.18,29.54-15.58,241.41-74.9,289.46-66.51,23.25,1.37,32.45,3.61,43.53,16.22,9.89-7.13,16.56-13.92,57.88-24.37,15.57-4.54,20.84,5.1,21.33,21.32C574,1143,593.14,1126,628.85,1125.76,665.17,1124.52,710.26,1132.52,765.94,1151.66Z" transform="translate(0.03 -931.13)"/><path class="cls-5" d="M2000.62,956.05c5.83-8.55-21.47-15.36-59.1-4.1-13.78,3.27-95.39,39.26-133.86,71.06-24.45,17.23-53,38.44-99.89,50.91-52.9,16.24-114.47,38.61-187.11,68.79-60.28,25.12-120.17,48.13-177.29,55.88l-132,19.85s165.16,8.48,224.54-5.74,156.17-48.15,156.17-48.15c77.21-26.47,145-31.15,235.22-87.76,56.49-31.1,81.93-57.08,100.68-78.72S1994.78,964.6,2000.62,956.05Z" transform="translate(0.03 -931.13)"/></svg>