<svg id="Hills_Top" data-name="Hills Top" xmlns="http://www.w3.org/2000/svg" viewBox="0 0 2560.01 1066.95"><defs><style>.cls-1{fill:#27b18c;}.cls-2{fill:#40cca5;}.cls-3{fill:#229979;}</style></defs><path class="cls-1" d="M0,533.05c132.57,8.12,214.8,68.48,271.74,99.78,141,93.27,220.74,256.17,403.46,282,68.32,9.65,654.25-197.07,684-201.06,93-12.45,127.33,12.57,129.2,11.58,0,0,309.21-131.67,410.38-122,52.31,2.27,101.16,62.27,113.44,60.69,3.29-4,35.12-20.67,55.62-29.25,66.34-24.45,110.12-15,144.18-29.42S2409.9,532.75,2560,533.05V1600H0" transform="translate(0 -533.05)"/><path class="cls-2" d="M775.78,905S991.19,838.42,1009,834.23c63.11-20.74,110.74-43.1,196.06-59.21,83.07-35.6,139.91-51.14,158-54.57,59-14.15,96.7,4.57,86.55,9.14s-43.84,20.95-50.56,25.56-60.68,20.63-71.11,26.12-52.52,2.89-123.13,42.54-84.12,35.16-108.51,37.62-90.4,17-127.5,29.39-80.54,3.49-118.06,18.89S787.7,912.37,775.78,905Z" transform="translate(0 -533.05)"/><path class="cls-2" d="M1885.66,612.87c-19.05,0-71.5,4.2-113.78,19s-52.57,13.48-76.75,29.23-44.41,13.24-55.51,19.64-51.83,10.78-123.87,55.93S1106.07,904,1197.84,889.39s72.72,48,176.79-14.6C1480.72,811,1477.63,818.24,1528,800c57.1-20.68,167.83-55.32,214-62.12s83-15.44,101.89-29.17,29.13-20.6,53.47-24.61,38.15-29.3,38.15-29.3,20.06-16.71,6.57-26.69S1904.7,612.87,1885.66,612.87Z" transform="translate(0 -533.05)"/><path class="cls-2" d="M2560,644.94c-13.75,12.28-45.94,37.29-73.74,30.9-36.49-8.39-75.32,26.45-103.08,35.92s-32.26,11-62.1,16.28-114,9.74-136,1.78-86.38,26.28-102.74,24.23-46.27,5.57-79,12.53c-35.78,7.62-119.54,51.39-206.23,28.07,108.9-43.76,241.3-134,265.74-147.22s80.3-24.27,119.11-20.25c9.46,2.47,40.13-3.81,110.58-32s100.76-29.9,100.76-29.9c40.73-8.77,80.62-18.42,130.18-18l36.49-.62" transform="translate(0 -533.05)"/><path class="cls-2" d="M0,546.7c31.5-.23,62.24,9.78,77.87,18.23s34.92,23.2,25.22,29.68-28.25,6.45-36.49,13.54-17.51,20.68-32.24,23.07S8.55,636.84,0,644.4Z" transform="translate(0 -533.05)"/><g id="Top_Hills_Shade" data-name="Top Hills Shade"><path class="cls-3" d="M2012.26,664.08c-21.78,4.88-130.92,81.78-138.88,86.33s-156.23,67.39-165.31,68.21c-5.18.48-82.87,37-168.17,80.34-43.32,17-134.19,74-212,120,87.19-55.58,179.2-116.21,234.19-138.09,52.82-30.62,113.06-61.33,179.61-92.13,36.27-17.89,110.12-35.43,131.72-50.87s108.45-63,111.77-73.8-15.88-29.85-15.88-29.85Z" transform="translate(0 -533.05)"/><path class="cls-3" d="M1488.44,725.34c-57.07,31.51-130.53,71.51-131.07,73.09S1274.7,827,1239.7,843.86c-28.72,10.62-73.31,33.56-126.74,63.37-17.41,11.82-85.26,37.55-151,62.71-79.59,20.11-106,24.94-50.1,6.16,37.15-10.27,132.81-49.07,157-57s109.06-64.16,151.53-80.72c28.41-11.85,62-24.34,107.45-38.35,43-18.33,85.27-36.5,105.29-49.59Z" transform="translate(0 -533.05)"/><path class="cls-3" d="M2213.93,1003" transform="translate(0 -533.05)"/><path class="cls-3" d="M838.79,1051.19s98.42,13.09,150.61,3.39,106.86-24.8,180.61-15.53,76.69,21.06,113.88,36.42,90.74,17.79,177.9-9c105.61-20.14,342.53,24.54,342.53,24.54l145.82,32.32-401.6,121s-203.13,33-197,32.34-318.19-6.91-318.19-6.91l-185.56-82.55L785,1196.13s-171.43-17.07-85.72-81S632.67,970.76,625.39,1003C624.43,1007.23,837.83,1055.42,838.79,1051.19Z" transform="translate(0 -533.05)"/><path class="cls-3" d="M2526.23,1159.1s15.25,2.18,33.78-10c0,3.65,0,32.35,0,32.35C2285.23,1289.51,2319.09,1162.53,2526.23,1159.1Z" transform="translate(0 -533.05)"/></g><g id="Layer_21" data-name="Layer 21"><path class="cls-3" d="M160,572.35c53.87,24.87,108.22,52.29,161.19,97.58l161.19,151c45.75,34.74,107.6,83.36,197.57,94.25-5.62,36.18,119,218.3,45.15,211.79C731.17,1224.24,65.67,1270.3,0,1185.51v-36.69c18.29-20.18,63.67-44.73,125-107.17s62.48-120.22,94.81-180.22,34.47-112.81,30.8-126.36S238,682.87,201,662s-45.4-56.48-53-94.79Z" transform="translate(0 -533.05)"/><path class="cls-3" d="M840.4,1051.47c-94.79-16.32-150.33-71.77-160.46-136.33L655.52,915l50.32,160.54Z" transform="translate(0 -533.05)"/></g></svg>